<svg width="76" height="85" viewBox="0 0 76 85" fill="none" xmlns="http://www.w3.org/2000/svg">
<path d="M11.4747 14.891C13.0849 19.601 16.2671 23.3291 20.2323 25.694C21.9195 21.3956 22.1526 16.5025 20.5425 11.7898C18.931 7.08109 15.7481 3.35298 11.7836 0.988739C10.097 5.2852 9.86322 10.1809 11.4747 14.891Z" fill="#FFBF31"/>
<path d="M45.689 14.891C44.0782 19.601 40.8966 23.3291 36.9308 25.694C35.2442 21.3956 35.0104 16.5025 36.6213 11.7898C38.2328 7.08109 41.4156 3.35298 45.3795 0.988739C47.0667 5.2852 47.2992 10.1809 45.689 14.891Z" fill="#FFBF31"/>
<path d="M11.7836 6.28882C11.1903 7.80022 10.7813 9.38669 10.564 11.012C10.7372 12.3081 11.0342 13.6061 11.4741 14.8916C13.0843 19.6016 16.2665 23.3298 20.2317 25.6947C20.825 24.1819 21.234 22.5955 21.4513 20.9708C21.2781 19.6741 20.9811 18.3754 20.5418 17.0905C18.931 12.3805 15.7482 8.6524 11.7836 6.28882Z" fill="#F0AE03"/>
<path d="M36.6213 17.0905C36.182 18.3747 35.8843 19.6741 35.7118 20.9708C35.9285 22.5955 36.3374 24.1819 36.9308 25.6947C40.896 23.3298 44.0782 19.6016 45.689 14.8916C46.1283 13.6061 46.4259 12.3081 46.5985 11.0107C46.3825 9.38603 45.9735 7.80022 45.3801 6.28882C41.4156 8.6524 38.2328 12.3805 36.6213 17.0905Z" fill="#F0AE03"/>
<path d="M21.4764 11.4704C20.1883 7.70471 17.8622 4.39478 14.8045 1.90476C14.7821 1.88632 14.7604 1.86722 14.738 1.84944C14.5227 1.67558 14.304 1.50698 14.0814 1.34169C14.032 1.30481 13.9833 1.26595 13.9333 1.22973C13.7251 1.0776 13.5131 0.931401 13.2997 0.786517C13.2391 0.745687 13.1805 0.702222 13.1199 0.662049C12.8479 0.482262 12.572 0.307743 12.2908 0.13981C12.0412 -0.00902525 11.7402 -0.0399777 11.465 0.0535381C11.3965 0.0772463 11.3313 0.10754 11.27 0.145078C11.0876 0.256375 10.944 0.424967 10.865 0.627145C10.732 0.965646 10.6108 1.3081 10.4962 1.65187C10.4666 1.74011 10.4402 1.82902 10.4119 1.91793C10.3263 2.18662 10.2453 2.45597 10.1709 2.7273C10.1465 2.81489 10.1228 2.90248 10.0998 2.99072C10.0201 3.29498 9.94698 3.60055 9.88112 3.90678C9.87059 3.95486 9.85939 4.00227 9.84885 4.05035C9.69804 4.77608 9.58609 5.50775 9.51233 6.24336C9.50311 6.33753 9.49586 6.43237 9.4873 6.52654C9.46491 6.78667 9.44647 7.04681 9.43396 7.3076C9.42737 7.43207 9.42145 7.55653 9.4175 7.68166C9.40959 7.92335 9.40762 8.16504 9.40828 8.40674C9.40828 8.52989 9.40564 8.65238 9.40828 8.77553C9.41486 9.1114 9.42935 9.44726 9.45174 9.78313C9.45372 9.81145 9.45372 9.83977 9.45569 9.86808C9.45635 9.87928 9.46096 9.88982 9.46228 9.90101C9.59333 11.6982 9.95027 13.4836 10.541 15.2103C12.1617 19.9513 15.4242 23.9765 19.7266 26.5422C19.8814 26.6344 20.0566 26.6818 20.2331 26.6818C20.3404 26.6818 20.4484 26.664 20.5525 26.6285C20.8271 26.5343 21.0464 26.3249 21.1524 26.0542C22.9812 21.3916 23.0971 16.2127 21.4764 11.4704ZM19.7187 24.1931C16.3219 21.8638 13.7482 18.4873 12.4087 14.5715C11.9385 13.1971 11.6467 11.7819 11.5018 10.3548L17.1786 7.36621C18.1941 8.82097 19.0253 10.4088 19.6074 12.1098C20.9456 16.0256 20.9779 20.272 19.7187 24.1931Z" fill="#33363A"/>
<path d="M47.7563 8.78277C47.7589 8.6504 47.7563 8.51803 47.7563 8.38566C47.7563 8.15384 47.7543 7.92203 47.7471 7.69022C47.7425 7.55982 47.7366 7.43008 47.73 7.29969C47.7168 7.04417 47.6997 6.7893 47.6773 6.53378C47.6687 6.43631 47.6615 6.33819 47.6516 6.24072C47.5778 5.50577 47.4659 4.77476 47.3157 4.04969C47.3058 4.00293 47.2947 3.95617 47.2848 3.90941C47.2183 3.6012 47.1452 3.29432 47.0655 2.98874C47.0424 2.90181 47.0194 2.81554 46.9957 2.72861C46.9206 2.45531 46.8389 2.18398 46.7527 1.91331C46.725 1.82638 46.6987 1.73879 46.6697 1.65252C46.5544 1.30809 46.4333 0.96564 46.3002 0.626481C46.2205 0.424302 46.0776 0.255711 45.8952 0.144414C45.8346 0.107534 45.7694 0.0765818 45.7003 0.0528736C45.4257 -0.0406422 45.124 -0.00903122 44.8744 0.139145C44.5932 0.307078 44.3173 0.481597 44.0453 0.661385C43.9847 0.701557 43.9261 0.744363 43.8662 0.785194C43.6521 0.930078 43.4394 1.07694 43.2313 1.22906C43.1819 1.26529 43.1345 1.30282 43.0851 1.3397C42.8625 1.50566 42.6426 1.67425 42.4272 1.84877C42.4048 1.86721 42.3831 1.88565 42.3607 1.90409C39.303 4.39345 36.9763 7.70404 35.6888 11.4697C34.0681 16.2107 34.1833 21.3896 36.0128 26.0542C36.1189 26.3242 36.3382 26.5343 36.6128 26.6285C36.7168 26.664 36.8248 26.6818 36.9322 26.6818C37.1087 26.6818 37.2832 26.6344 37.4386 26.5422C41.7403 23.9764 45.0035 19.9526 46.6249 15.2103C47.215 13.4842 47.5719 11.7002 47.703 9.9043C47.7043 9.89179 47.7096 9.88059 47.7102 9.86808C47.7122 9.83713 47.7122 9.80617 47.7142 9.77588C47.7352 9.44528 47.7497 9.11403 47.7563 8.78277ZM37.4439 24.1931C36.1854 20.2707 36.2176 16.025 37.5558 12.1092C38.138 10.4081 38.9652 8.81833 39.9793 7.36291L45.672 10.36C45.5231 11.7852 45.2241 13.1991 44.7546 14.5715C43.4151 18.488 40.8414 21.8644 37.4439 24.1931Z" fill="#33363A"/>
<path d="M19.8299 82.0096C19.8299 82.7979 19.1904 83.4367 18.4022 83.4367H16.0834C15.2951 83.4367 14.6562 82.7979 14.6562 82.0096V79.156C14.6562 78.3677 15.2951 77.7296 16.0834 77.7296H18.4022C19.1904 77.7296 19.8299 78.3677 19.8299 79.156V82.0096Z" fill="#F0AE03"/>
<path d="M42.5075 82.0096C42.5075 82.7979 41.8687 83.4367 41.0804 83.4367H38.7616C37.9733 83.4367 37.3339 82.7979 37.3339 82.0096V79.156C37.3339 78.3677 37.9733 77.7296 38.7616 77.7296H41.0804C41.8687 77.7296 42.5075 78.3677 42.5075 79.156V82.0096Z" fill="#F0AE03"/>
<path d="M18.4022 84.4245H16.0834C14.7518 84.4245 13.6685 83.3412 13.6685 82.0096V79.156C13.6685 77.8251 14.7518 76.7418 16.0834 76.7418H18.4022C19.7338 76.7418 20.8178 77.8251 20.8178 79.156V82.0096C20.8178 83.3412 19.7345 84.4245 18.4022 84.4245ZM16.0834 78.7174C15.8411 78.7174 15.6441 78.9144 15.6441 79.156V82.0096C15.6441 82.2519 15.8411 82.4489 16.0834 82.4489H18.4022C18.6446 82.4489 18.8421 82.2519 18.8421 82.0096V79.156C18.8421 78.9144 18.6446 78.7174 18.4022 78.7174H16.0834Z" fill="#33363A"/>
<path d="M41.0805 84.4246H38.7617C37.4301 84.4246 36.3461 83.3413 36.3461 82.0097V79.1561C36.3461 77.8252 37.4301 76.7418 38.7617 76.7418H41.0805C42.4121 76.7418 43.4954 77.8252 43.4954 79.1561V82.0097C43.4954 83.3413 42.4121 84.4246 41.0805 84.4246ZM38.761 78.7175C38.5187 78.7175 38.3211 78.9144 38.3211 79.1561V82.0097C38.3211 82.252 38.5187 82.4489 38.761 82.4489H41.0798C41.3222 82.4489 41.5191 82.252 41.5191 82.0097V79.1561C41.5191 78.9144 41.3222 78.7175 41.0798 78.7175H38.761Z" fill="#33363A"/>
<path d="M45.8445 62.1684V37.0811C45.8445 28.2419 38.653 21.0498 29.8144 21.0498H27.3481C18.5095 21.0498 11.3187 28.2419 11.3187 37.0811V62.1684C10.1912 63.3894 9.49646 65.016 9.49646 66.8086V72.4907C9.49646 76.2761 12.564 79.3424 16.3481 79.3424H40.8137C44.5971 79.3424 47.6654 76.2761 47.6654 72.4907V66.8086C47.6667 65.016 46.9719 63.3894 45.8445 62.1684Z" fill="#FFBF31"/>
<path d="M45.8445 62.1684V41.3104C45.8445 32.4712 38.653 25.2797 29.8144 25.2797H27.3481C18.5095 25.2797 11.3187 32.4712 11.3187 41.3104V62.1684V66.3983C10.1912 67.6193 9.49646 69.2466 9.49646 71.0385V72.4907C9.49646 76.2761 12.564 79.3423 16.3481 79.3423H40.8137C44.5971 79.3423 47.6654 76.2761 47.6654 72.4907V71.0385C47.6654 69.2466 46.9706 67.6199 45.8431 66.3983V62.1684H45.8445Z" fill="#FFB800"/>
<path d="M40.815 80.3302H16.3494C12.0266 80.3302 8.50989 76.8135 8.50989 72.4907V66.8086C8.50989 64.9713 9.15462 63.207 10.3321 61.797V37.0812C10.3321 27.6967 17.9662 20.062 27.3494 20.062H29.8157C39.1995 20.062 46.8336 27.6967 46.8336 37.0812V61.7963C48.0111 63.2063 48.6558 64.9713 48.6558 66.808V72.4901C48.6545 76.8135 45.1378 80.3302 40.815 80.3302ZM27.348 22.0383C19.0541 22.0383 12.3065 28.7866 12.3065 37.0818V62.1691C12.3065 62.4174 12.2123 62.6571 12.0444 62.8395C11.0388 63.9288 10.4849 65.3387 10.4849 66.8093V72.4914C10.4849 75.7249 13.1152 78.3552 16.3487 78.3552H40.8143C44.0479 78.3552 46.6782 75.7243 46.6782 72.4914V66.8093C46.6782 65.3387 46.1243 63.9281 45.1187 62.8395C44.9501 62.6571 44.8566 62.418 44.8566 62.1691V37.0812C44.8566 28.7859 38.1089 22.0376 29.8144 22.0376H27.348V22.0383Z" fill="#33363A"/>
<path d="M75.0116 46.7614L56.9479 39.074L39.5586 52.3045L47.6464 55.7481L27.8599 72.7917L66.3653 59.7067L57.3068 55.8515L75.0116 46.7614Z" fill="#FFBF31"/>
<path d="M52.6501 58.1525L70.3555 49.0617L53.3376 41.8202L39.5586 52.3045L47.6464 55.7481L27.8599 72.7917L60.7708 61.6093L52.6501 58.1525Z" fill="#F0AE03"/>
<path d="M27.8598 73.7802C27.4482 73.7802 27.0642 73.5207 26.9246 73.1098C26.7488 72.5935 27.0254 72.0324 27.5424 71.8566L63.5999 59.6034L56.9208 56.761C56.5678 56.6109 56.3334 56.2704 56.3202 55.8878C56.3064 55.5045 56.5151 55.1482 56.8556 54.973L72.6855 46.845L57.0887 40.2081L41.5091 52.0615L48.0335 54.84C48.5353 55.0534 48.7691 55.6342 48.5551 56.136C48.3411 56.6372 47.7635 56.8716 47.2597 56.657L39.1719 53.2133C38.8486 53.0757 38.622 52.7761 38.5792 52.427C38.5357 52.078 38.6806 51.7316 38.9612 51.5189L56.3498 38.2884C56.633 38.0723 57.0091 38.0276 57.3344 38.1652L75.3987 45.8526C75.7517 46.0027 75.9862 46.3432 75.9993 46.7258C76.0132 47.1091 75.8044 47.4654 75.4639 47.6406L59.6328 55.7679L66.7525 58.7979C67.1292 58.9586 67.3689 59.3347 67.3531 59.7443C67.3373 60.1539 67.0712 60.5109 66.6833 60.6426L28.1772 73.7275C28.0718 73.7631 27.9652 73.7802 27.8598 73.7802Z" fill="#33363A"/>
<path d="M23.2868 41.2664C23.0339 41.2664 22.781 41.1702 22.588 40.9773C22.2021 40.592 22.2021 39.9664 22.588 39.5804C26.1811 35.986 32.0272 35.986 35.6216 39.5791C36.0075 39.9644 36.0075 40.59 35.6216 40.9759C35.2357 41.3619 34.6107 41.3619 34.2248 40.9759C31.4022 38.1527 26.8068 38.154 23.9848 40.9773C23.7925 41.1696 23.5396 41.2664 23.2868 41.2664Z" fill="#33363A"/>
<path d="M34.9235 49.1664C34.6707 49.1664 34.4178 49.0703 34.2248 48.8773C31.4016 46.0547 26.8081 46.0547 23.9848 48.8773C23.5989 49.2632 22.9739 49.2632 22.588 48.8773C22.2021 48.4921 22.2021 47.8658 22.588 47.4805C26.1818 43.8867 32.0278 43.8867 35.6216 47.4805C36.0075 47.8658 36.0075 48.4921 35.6216 48.8773C35.4293 49.0703 35.1764 49.1664 34.9235 49.1664Z" fill="#33363A"/>
<path d="M17.2431 84.4245H12.1221C11.5768 84.4245 11.1343 83.9826 11.1343 83.4367C11.1343 82.8907 11.5768 82.4489 12.1221 82.4489H17.2431C17.7884 82.4489 18.2309 82.8907 18.2309 83.4367C18.2309 83.9826 17.7884 84.4245 17.2431 84.4245Z" fill="#33363A"/>
<path d="M7.88427 84.4245H7.825C7.27971 84.4245 6.83716 83.9826 6.83716 83.4367C6.83716 82.8907 7.27971 82.4489 7.825 82.4489C8.37029 82.4489 8.84248 82.8907 8.84248 83.4367C8.84248 83.9826 8.42956 84.4245 7.88427 84.4245Z" fill="#33363A"/>
<path d="M4.46569 84.4245H4.40642C3.86113 84.4245 3.41858 83.9826 3.41858 83.4367C3.41858 82.8907 3.86113 82.4489 4.40642 82.4489C4.95171 82.4489 5.4239 82.8907 5.4239 83.4367C5.4239 83.9826 5.01098 84.4245 4.46569 84.4245Z" fill="#33363A"/>
<path d="M1.04711 84.4245H0.987843C0.442554 84.4245 0 83.9826 0 83.4367C0 82.8907 0.442554 82.4489 0.987843 82.4489C1.53313 82.4489 2.00532 82.8907 2.00532 83.4367C2.00532 83.9826 1.5924 84.4245 1.04711 84.4245Z" fill="#33363A"/>
</svg>
