<?xml version="1.0" encoding="utf-8"?>
<!-- Generator: Adobe Illustrator 21.0.0, SVG Export Plug-In . SVG Version: 6.00 Build 0)  -->
<svg version="1.1" id="Capa_1" xmlns="http://www.w3.org/2000/svg" xmlns:xlink="http://www.w3.org/1999/xlink" x="0px" y="0px"
	 viewBox="0 0 142 142" style="enable-background:new 0 0 142 142;" xml:space="preserve">
<g>
	<g>
		<g>
			<path d="M637.6,96.2c4.2-0.8,8.4-1.6,12.6-2.4c-0.5-0.5-0.9-0.9-1.4-1.4c-0.7,4.2-1.5,8.4-2.2,12.6c-0.1,0.6,0.2,1.1,0.8,1.4
				c6.8,2.4,13.7,4.8,20.5,7.2c0-0.7,0-1.4,0-2.1c-6.8,2.5-13.6,4.9-20.5,7.4c-0.6,0.2-0.9,0.7-0.8,1.4c0.9,4.3,1.9,8.7,2.8,13
				c0.5-0.5,0.9-0.9,1.4-1.4c-4.4-0.9-8.7-1.8-13.1-2.7c-0.6-0.1-1.1,0.2-1.4,0.8c-2.4,6.8-4.8,13.7-7.2,20.5c0.7,0,1.4,0,2.1,0
				c-2.5-6.8-4.9-13.6-7.4-20.5c-0.2-0.6-0.7-0.9-1.4-0.8c-4.4,1-8.8,1.9-13.1,2.9c0.5,0.5,0.9,0.9,1.4,1.4
				c0.9-4.4,1.9-8.8,2.8-13.2c0.1-0.6-0.2-1.1-0.8-1.4c-6.8-2.4-13.7-4.8-20.5-7.2c0,0.7,0,1.4,0,2.1c6.8-2.5,13.6-4.9,20.5-7.4
				c0.6-0.2,0.9-0.7,0.8-1.4c-0.9-4.3-1.7-8.5-2.6-12.8c-0.5,0.5-0.9,0.9-1.4,1.4c4.3,0.8,8.6,1.7,12.9,2.5c0.6,0.1,1.1-0.2,1.4-0.8
				c2.4-6.8,4.8-13.7,7.2-20.5c-0.7,0-1.4,0-2.1,0c2.5,6.8,4.9,13.6,7.4,20.5c0.5,1.3,2.6,0.8,2.1-0.6c-2.5-6.8-4.9-13.6-7.4-20.5
				c-0.4-1-1.8-1-2.1,0c-2.4,6.8-4.8,13.7-7.2,20.5c0.5-0.3,0.9-0.5,1.4-0.8c-4.3-0.8-8.6-1.7-12.9-2.5c-0.8-0.2-1.5,0.5-1.4,1.4
				c0.9,4.3,1.7,8.5,2.6,12.8c0.3-0.5,0.5-0.9,0.8-1.4c-6.8,2.5-13.6,4.9-20.5,7.4c-1,0.4-1,1.8,0,2.1c6.8,2.4,13.7,4.8,20.5,7.2
				c-0.3-0.5-0.5-0.9-0.8-1.4c-0.9,4.4-1.9,8.8-2.8,13.2c-0.2,0.8,0.5,1.5,1.4,1.4c4.4-1,8.8-1.9,13.1-2.9c-0.5-0.3-0.9-0.5-1.4-0.8
				c2.5,6.8,4.9,13.6,7.4,20.5c0.4,1,1.8,1,2.1,0c2.4-6.8,4.8-13.7,7.2-20.5c-0.5,0.3-0.9,0.5-1.4,0.8c4.4,0.9,8.7,1.8,13.1,2.7
				c0.8,0.2,1.5-0.5,1.4-1.4c-0.9-4.3-1.9-8.7-2.8-13c-0.3,0.5-0.5,0.9-0.8,1.4c6.8-2.5,13.6-4.9,20.5-7.4c1-0.4,1-1.8,0-2.1
				c-6.8-2.4-13.7-4.8-20.5-7.2c0.3,0.5,0.5,0.9,0.8,1.4c0.7-4.2,1.5-8.4,2.2-12.6c0.2-0.9-0.5-1.5-1.4-1.4
				c-4.2,0.8-8.4,1.6-12.6,2.4C635.7,94.3,636.2,96.5,637.6,96.2z"/>
		</g>
	</g>
	<g>
		<g>
			<path d="M630.9,124.2c-4.1-4.1-8.2-8.2-12.2-12.2c0,0.5,0,1,0,1.6c4.1-4.1,8.2-8.2,12.2-12.2c-0.5,0-1,0-1.6,0
				c4.1,4.1,8.2,8.2,12.2,12.2c0-0.5,0-1,0-1.6c-4.1,4.1-8.2,8.2-12.2,12.2c-1,1,0.6,2.6,1.6,1.6c4.1-4.1,8.2-8.2,12.2-12.2
				c0.4-0.4,0.4-1.1,0-1.6c-4.1-4.1-8.2-8.2-12.2-12.2c-0.4-0.4-1.1-0.4-1.6,0c-4.1,4.1-8.2,8.2-12.2,12.2c-0.4,0.4-0.4,1.1,0,1.6
				c4.1,4.1,8.2,8.2,12.2,12.2C630.3,126.8,631.9,125.2,630.9,124.2z"/>
		</g>
	</g>
</g>
<g>
	<path d="M99.5,29.5c-8.4-10.2-17.8-20-28-28.4c-1-0.8-2.2-0.9-3.1,0C60,8.5,52.3,16.7,45,25.2C33.1,39,21.2,54.6,16.1,72.4
		c-5.4,18.6,1.1,39.3,14.9,52.7C45.8,139.7,68.3,144.8,88,138c22.6-7.8,37.5-29.1,37.8-52.9C125.5,64.2,112.4,45.1,99.5,29.5z
		 M89.3,132.8c-18.7,7.6-40.8,3.3-55.2-10.8c-13.7-13.3-19-33.4-12.7-51.5c5.5-16.1,16.5-30.3,27.5-43c6.6-7.6,13.7-15,21.2-21.9
		c8.6,7.4,16.7,15.7,24,24.3c13,15.2,27,34.4,27.3,55.3C121.1,105.9,108.7,125,89.3,132.8z"/>
	<path d="M70,127.1c-23.1-0.4-41.5-18.8-41.9-41.9c0-2.8-4.5-2.9-4.4,0c0.4,25.5,20.8,45.9,46.3,46.3
		C72.8,131.5,72.8,127.1,70,127.1z"/>
</g>
</svg>
