<?xml version="1.0" encoding="utf-8"?>
<!-- Generator: Adobe Illustrator 21.0.0, SVG Export Plug-In . SVG Version: 6.00 Build 0)  -->
<svg version="1.1" id="Capa_1" xmlns="http://www.w3.org/2000/svg" xmlns:xlink="http://www.w3.org/1999/xlink" x="0px" y="0px"
	 viewBox="0 0 142 142" style="enable-background:new 0 0 142 142;" xml:space="preserve">
<style type="text/css">
	.st0{fill:none;stroke:#000000;stroke-width:2.2;stroke-miterlimit:10;}
</style>
<g>
	<g>
		<g>
			<path d="M637.6,96.2c4.2-0.8,8.4-1.6,12.6-2.4c-0.5-0.5-0.9-0.9-1.4-1.4c-0.7,4.2-1.5,8.4-2.2,12.6c-0.1,0.6,0.2,1.1,0.8,1.4
				c6.8,2.4,13.7,4.8,20.5,7.2c0-0.7,0-1.4,0-2.1c-6.8,2.5-13.6,4.9-20.5,7.4c-0.6,0.2-0.9,0.7-0.8,1.4c0.9,4.3,1.9,8.7,2.8,13
				c0.5-0.5,0.9-0.9,1.4-1.4c-4.4-0.9-8.7-1.8-13.1-2.7c-0.6-0.1-1.1,0.2-1.4,0.8c-2.4,6.8-4.8,13.7-7.2,20.5c0.7,0,1.4,0,2.1,0
				c-2.5-6.8-4.9-13.6-7.4-20.5c-0.2-0.6-0.7-0.9-1.4-0.8c-4.4,1-8.8,1.9-13.1,2.9c0.5,0.5,0.9,0.9,1.4,1.4
				c0.9-4.4,1.9-8.8,2.8-13.2c0.1-0.6-0.2-1.1-0.8-1.4c-6.8-2.4-13.7-4.8-20.5-7.2c0,0.7,0,1.4,0,2.1c6.8-2.5,13.6-4.9,20.5-7.4
				c0.6-0.2,0.9-0.7,0.8-1.4c-0.9-4.3-1.7-8.5-2.6-12.8c-0.5,0.5-0.9,0.9-1.4,1.4c4.3,0.8,8.6,1.7,12.9,2.5c0.6,0.1,1.1-0.2,1.4-0.8
				c2.4-6.8,4.8-13.7,7.2-20.5c-0.7,0-1.4,0-2.1,0c2.5,6.8,4.9,13.6,7.4,20.5c0.5,1.3,2.6,0.8,2.1-0.6c-2.5-6.8-4.9-13.6-7.4-20.5
				c-0.4-1-1.8-1-2.1,0c-2.4,6.8-4.8,13.7-7.2,20.5c0.5-0.3,0.9-0.5,1.4-0.8c-4.3-0.8-8.6-1.7-12.9-2.5c-0.8-0.2-1.5,0.5-1.4,1.4
				c0.9,4.3,1.7,8.5,2.6,12.8c0.3-0.5,0.5-0.9,0.8-1.4c-6.8,2.5-13.6,4.9-20.5,7.4c-1,0.4-1,1.8,0,2.1c6.8,2.4,13.7,4.8,20.5,7.2
				c-0.3-0.5-0.5-0.9-0.8-1.4c-0.9,4.4-1.9,8.8-2.8,13.2c-0.2,0.8,0.5,1.5,1.4,1.4c4.4-1,8.8-1.9,13.1-2.9c-0.5-0.3-0.9-0.5-1.4-0.8
				c2.5,6.8,4.9,13.6,7.4,20.5c0.4,1,1.8,1,2.1,0c2.4-6.8,4.8-13.7,7.2-20.5c-0.5,0.3-0.9,0.5-1.4,0.8c4.4,0.9,8.7,1.8,13.1,2.7
				c0.8,0.2,1.5-0.5,1.4-1.4c-0.9-4.3-1.9-8.7-2.8-13c-0.3,0.5-0.5,0.9-0.8,1.4c6.8-2.5,13.6-4.9,20.5-7.4c1-0.4,1-1.8,0-2.1
				c-6.8-2.4-13.7-4.8-20.5-7.2c0.3,0.5,0.5,0.9,0.8,1.4c0.7-4.2,1.5-8.4,2.2-12.6c0.2-0.9-0.5-1.5-1.4-1.4
				c-4.2,0.8-8.4,1.6-12.6,2.4C635.7,94.3,636.2,96.5,637.6,96.2z"/>
		</g>
	</g>
	<g>
		<g>
			<path d="M630.9,124.2c-4.1-4.1-8.2-8.2-12.2-12.2c0,0.5,0,1,0,1.6c4.1-4.1,8.2-8.2,12.2-12.2c-0.5,0-1,0-1.6,0
				c4.1,4.1,8.2,8.2,12.2,12.2c0-0.5,0-1,0-1.6c-4.1,4.1-8.2,8.2-12.2,12.2c-1,1,0.6,2.6,1.6,1.6c4.1-4.1,8.2-8.2,12.2-12.2
				c0.4-0.4,0.4-1.1,0-1.6c-4.1-4.1-8.2-8.2-12.2-12.2c-0.4-0.4-1.1-0.4-1.6,0c-4.1,4.1-8.2,8.2-12.2,12.2c-0.4,0.4-0.4,1.1,0,1.6
				c4.1,4.1,8.2,8.2,12.2,12.2C630.3,126.8,631.9,125.2,630.9,124.2z"/>
		</g>
	</g>
</g>
<path class="st0" d="M-30.7-130.9"/>
<g>
	<path d="M104.7,36.1c-10-7.3-23.1-12.1-35.7-13c2.7-6.4,5.4-12.8,8.2-19.2c0.5-1.2-0.7-3.1-2.1-2.1C53.5,17.8,31.8,35.4,16.4,57.7
		c-0.9,1.4-2.5,3.3-2.5,5.1c0.1,2.5,3.3,4.1,5.2,5.2c2.7,1.4,5.8,3,8.8,3.7c1.5,0.4,2.3-0.2,3.6-0.9c6.3-3.2,13.1-7,20.1-8.5
		c2.2-0.5,4.6-0.3,6.9-0.3c3.5,0,7.2-0.2,10.7,0.6c2.6,0.6,3.6-0.4,4.4-3c1-3.1,1.5-6.7,1.7-9.9c0.2-2.1-1.1-3.3-2.3-5.1
		c-1.7-2.5-3.4-5.1-5.1-7.6c-1.1-1.6-3.7-0.1-2.6,1.5c1.2,1.8,2.4,3.6,3.6,5.4c0.8,1.2,1.6,2.4,2.4,3.6c0.3,0.4,0.5,0.9,0.8,1.2
		c0.1,0.1,0.1,0.1,0.2,0.2c0.1,2.1-0.5,4.4-0.9,6.4c-0.2,1.2-0.9,2.7-1,3.9c0,0.3-0.1,0.5-0.2,0.6c-0.3-0.1-0.7-0.3-1-0.3
		c-5-1-10.8-0.8-15.9-0.5c-6,0.4-12.1,3.7-17.5,6.3c-2.2,1-5.1,2-7.1,3.5c-0.6-0.5-2.6-0.9-3.2-1.1c-1.7-0.7-8.1-2.7-8.7-4.8
		c-0.2-1,1.8-3.3,2.4-4.2c6.2-8.7,13.7-17,21.4-24.5c9.8-9.5,20.6-18.1,31.5-26.3c-2.3,5.4-4.6,10.7-6.8,16.1
		c-0.4,1,0.1,2.2,1.3,2.3c10,0.4,20.6,3.6,29.4,8.3c8.2,4.4,15.4,10.7,20.2,18.7c6.2,10.5,8.1,22.9,7.3,34.9
		c-0.7,11.2-4.4,22.3-12,30.7c-5.7,6.3-13.1,10.6-21.1,13.4c-8,2.8-17,4.5-25.5,3.9c-21.1-1.5-41-14.5-48-34.8
		c-0.6-1.8-3.5-1-2.9,0.8c7.1,20.8,26.1,33.5,47.4,36.6c8.4,1.2,17.2,0,25.3-2.2c19-5.1,34-18.4,38.5-38
		C130.3,75.5,124.1,50.3,104.7,36.1z M72.5,48.9C72.5,49.1,72.5,49.1,72.5,48.9L72.5,48.9z"/>
	<path d="M50.4,39.4c-3.9,2-7.8,4-11.6,6c-1.7,0.9-0.2,3.5,1.5,2.6c3.9-2,7.8-4,11.6-6C53.7,41.1,52.2,38.5,50.4,39.4z"/>
	<path d="M54.3,116.3c-1.8-0.7-2.6,2.2-0.8,2.9c18,7.2,38.9-1.3,46.4-19.3c7.5-18-1.3-38.8-19.1-46.5c-1.8-0.8-3.3,1.8-1.5,2.6
		C95.6,63.1,104,82,97,98.7C90.1,115.4,70.8,122.9,54.3,116.3z"/>
	<path d="M51.6,126c-9.5-2-18.7-8.2-23.4-17c-0.9-1.7-3.5-0.2-2.6,1.5c5,9.4,14.9,16.2,25.2,18.4C52.7,129.3,53.5,126.4,51.6,126z"
		/>
</g>
</svg>
