<?xml version="1.0" encoding="utf-8"?>
<!-- Generator: Adobe Illustrator 21.0.0, SVG Export Plug-In . SVG Version: 6.00 Build 0)  -->
<svg version="1.1" id="Capa_1" xmlns="http://www.w3.org/2000/svg" xmlns:xlink="http://www.w3.org/1999/xlink" x="0px" y="0px"
	 viewBox="0 0 142 142" style="enable-background:new 0 0 142 142;" xml:space="preserve">
<g>
	<g>
		<g>
			<path d="M637.6,96.2c4.2-0.8,8.4-1.6,12.6-2.4c-0.5-0.5-0.9-0.9-1.4-1.4c-0.7,4.2-1.5,8.4-2.2,12.6c-0.1,0.6,0.2,1.1,0.8,1.4
				c6.8,2.4,13.7,4.8,20.5,7.2c0-0.7,0-1.4,0-2.1c-6.8,2.5-13.6,4.9-20.5,7.4c-0.6,0.2-0.9,0.7-0.8,1.4c0.9,4.3,1.9,8.7,2.8,13
				c0.5-0.5,0.9-0.9,1.4-1.4c-4.4-0.9-8.7-1.8-13.1-2.7c-0.6-0.1-1.1,0.2-1.4,0.8c-2.4,6.8-4.8,13.7-7.2,20.5c0.7,0,1.4,0,2.1,0
				c-2.5-6.8-4.9-13.6-7.4-20.5c-0.2-0.6-0.7-0.9-1.4-0.8c-4.4,1-8.8,1.9-13.1,2.9c0.5,0.5,0.9,0.9,1.4,1.4
				c0.9-4.4,1.9-8.8,2.8-13.2c0.1-0.6-0.2-1.1-0.8-1.4c-6.8-2.4-13.7-4.8-20.5-7.2c0,0.7,0,1.4,0,2.1c6.8-2.5,13.6-4.9,20.5-7.4
				c0.6-0.2,0.9-0.7,0.8-1.4c-0.9-4.3-1.7-8.5-2.6-12.8c-0.5,0.5-0.9,0.9-1.4,1.4c4.3,0.8,8.6,1.7,12.9,2.5c0.6,0.1,1.1-0.2,1.4-0.8
				c2.4-6.8,4.8-13.7,7.2-20.5c-0.7,0-1.4,0-2.1,0c2.5,6.8,4.9,13.6,7.4,20.5c0.5,1.3,2.6,0.8,2.1-0.6c-2.5-6.8-4.9-13.6-7.4-20.5
				c-0.4-1-1.8-1-2.1,0c-2.4,6.8-4.8,13.7-7.2,20.5c0.5-0.3,0.9-0.5,1.4-0.8c-4.3-0.8-8.6-1.7-12.9-2.5c-0.8-0.2-1.5,0.5-1.4,1.4
				c0.9,4.3,1.7,8.5,2.6,12.8c0.3-0.5,0.5-0.9,0.8-1.4c-6.8,2.5-13.6,4.9-20.5,7.4c-1,0.4-1,1.8,0,2.1c6.8,2.4,13.7,4.8,20.5,7.2
				c-0.3-0.5-0.5-0.9-0.8-1.4c-0.9,4.4-1.9,8.8-2.8,13.2c-0.2,0.8,0.5,1.5,1.4,1.4c4.4-1,8.8-1.9,13.1-2.9c-0.5-0.3-0.9-0.5-1.4-0.8
				c2.5,6.8,4.9,13.6,7.4,20.5c0.4,1,1.8,1,2.1,0c2.4-6.8,4.8-13.7,7.2-20.5c-0.5,0.3-0.9,0.5-1.4,0.8c4.4,0.9,8.7,1.8,13.1,2.7
				c0.8,0.2,1.5-0.5,1.4-1.4c-0.9-4.3-1.9-8.7-2.8-13c-0.3,0.5-0.5,0.9-0.8,1.4c6.8-2.5,13.6-4.9,20.5-7.4c1-0.4,1-1.8,0-2.1
				c-6.8-2.4-13.7-4.8-20.5-7.2c0.3,0.5,0.5,0.9,0.8,1.4c0.7-4.2,1.5-8.4,2.2-12.6c0.2-0.9-0.5-1.5-1.4-1.4
				c-4.2,0.8-8.4,1.6-12.6,2.4C635.7,94.3,636.2,96.5,637.6,96.2z"/>
		</g>
	</g>
	<g>
		<g>
			<path d="M630.9,124.2c-4.1-4.1-8.2-8.2-12.2-12.2c0,0.5,0,1,0,1.6c4.1-4.1,8.2-8.2,12.2-12.2c-0.5,0-1,0-1.6,0
				c4.1,4.1,8.2,8.2,12.2,12.2c0-0.5,0-1,0-1.6c-4.1,4.1-8.2,8.2-12.2,12.2c-1,1,0.6,2.6,1.6,1.6c4.1-4.1,8.2-8.2,12.2-12.2
				c0.4-0.4,0.4-1.1,0-1.6c-4.1-4.1-8.2-8.2-12.2-12.2c-0.4-0.4-1.1-0.4-1.6,0c-4.1,4.1-8.2,8.2-12.2,12.2c-0.4,0.4-0.4,1.1,0,1.6
				c4.1,4.1,8.2,8.2,12.2,12.2C630.3,126.8,631.9,125.2,630.9,124.2z"/>
		</g>
	</g>
</g>
<g>
	<path d="M133.6,134.5c-0.2-0.1-0.3-0.1-0.4-0.2c-0.3-0.2-0.6-0.3-0.9-0.5c-2-1.2-4-2.3-5.9-3.5c-2.4-1.6-5-3.2-6.9-5.4
		c-2.6-3,0-3.9,2.4-6.4c12.3-13,18.9-30.1,19.1-47.9c-0.3-27-16-52.1-40.8-63.3C75.4-3.9,45.8,0.6,25.4,18.6
		C5.3,36.3-3.1,65.4,5.1,91c8.1,25.3,31.1,43,56.8,47.8c14.7,2.8,30.3,1.9,45.2,1.3c6.3-0.2,12.6-0.6,18.9-1
		c2.3-0.2,5.9,0.2,8.1-0.9C135.9,137.3,135.1,135.1,133.6,134.5z M111.8,135.9c-11.8,0.6-23.7,0.9-35.5,0.4
		c-25-1.1-49.3-12.3-62.1-34.6C1.4,79.1,4.3,50,20.4,29.8C36.5,9.7,63.7,0.7,88.6,7.5c28.3,7.7,47.9,33.9,48.2,63.1
		c-0.1,11.1-2.8,22-8.2,31.8c-2.6,4.6-5.6,8.9-9.2,12.7c-1.9,2-5.3,4.1-5.5,7.1c-0.3,4.7,5.6,8.4,8.9,10.7c1.1,0.7,2.2,1.4,3.3,2.1
		C121.4,135.4,116.6,135.6,111.8,135.9z M132.5,138.4C132.5,138.4,132.5,138.4,132.5,138.4C132.6,138.5,132.7,138.5,132.5,138.4z"/>
	<path d="M43.7,43.1c-0.5-0.4-1.1-0.5-1.6-0.5c-0.6,0-1.2,0.3-1.6,0.9c-5.3,7.2-4.3,17.4,3.1,22.8c7.1,5.2,16.7,3.6,22.2-3.1
		c0.6-0.8,0.9-2.2,0-2.9C58.4,54.6,51.1,48.9,43.7,43.1z M42.8,47.6C49,52.4,55.1,57.2,61.2,62C51.4,70.8,36.6,59.3,42.8,47.6z"/>
	<path d="M102.5,42.7c-0.5-0.1-1.1,0-1.6,0.5c-7.3,5.7-14.7,11.5-22,17.2c-0.9,0.7-0.6,2.1,0,2.9c5.5,6.7,15.1,8.3,22.2,3.1
		c7.3-5.4,8.4-15.6,3.1-22.8C103.7,42.9,103.1,42.7,102.5,42.7z M83.4,62c6.1-4.8,12.3-9.6,18.4-14.4C108,59.3,93.2,70.8,83.4,62z"
		/>
</g>
</svg>
