<?xml version="1.0" encoding="utf-8"?>
<!-- Generator: Adobe Illustrator 21.0.0, SVG Export Plug-In . SVG Version: 6.00 Build 0)  -->
<svg version="1.1" id="Capa_1" xmlns="http://www.w3.org/2000/svg" xmlns:xlink="http://www.w3.org/1999/xlink" x="0px" y="0px"
	 viewBox="0 0 142 142" style="enable-background:new 0 0 142 142;" xml:space="preserve">
<g>
	<g>
		<path d="M71,72.8c8.9-2.5,17.8-5,26.7-7.6c5.7-1.6,11.4-3.2,17-4.8c3.6-1,7.2-1.9,10.5-3.5c15.6-7.8,20.6-28.6,10.2-42.6
			C127.2,3,114,1,101.3,4.6c-11.5,3.3-23,6.5-34.5,9.8C57.1,17.1,47,19.3,38,23.5c-15.9,7.4-28.9,21-34.2,37.9
			c-5.3,17-2.4,36.1,7.4,50.9C22,128.7,40.3,139.1,60,139.9c22.5,0.9,43.5-10.9,55.2-30c1.3-2.2-2.1-4.1-3.4-2
			c-10.2,16.8-28.2,27.6-47.9,28.1c-17,0.4-33.5-6.9-44.7-19.7C7.9,103.5,2.9,85.6,6,68.8c3.1-16.7,14.1-30.7,28.6-39.2
			c8.7-5,18.4-7.3,27.9-10c10.6-3,21.3-6,31.9-9c9.7-2.7,19.2-6.4,29-1.5c17,8.5,18.3,33.2,2,43.2c-3.6,2.2-7.7,3.2-11.7,4.3
			c-5.7,1.6-11.4,3.2-17,4.8C87.8,64,78.9,66.5,70,69C67.5,69.7,68.6,73.4,71,72.8L71,72.8z"/>
	</g>
	<g>
		<path d="M126,59.9c2.8,9.4-2.7,19-11.9,22c-3,1-6.2,1.8-9.2,2.7c-8.8,2.5-17.6,5.1-26.3,7.6c-2.4,0.7-1.4,4.5,1,3.8
			c10.2-2.9,20.3-5.9,30.5-8.8c4.8-1.4,9.4-2.6,13.3-6c6.2-5.5,8.7-14.3,6.4-22.2C129,56.5,125.2,57.5,126,59.9L126,59.9z"/>
	</g>
	<g>
		<path d="M120.9,85.9c4.8,16.7-18.9,19.4-29.8,22.5c-2.4,0.7-1.4,4.5,1,3.8c6.6-1.9,13.1-3.7,19.7-5.7c9.4-2.8,15.7-11.7,12.9-21.6
			C124,82.5,120.2,83.5,120.9,85.9L120.9,85.9z"/>
	</g>
</g>
</svg>
