<?xml version="1.0" encoding="utf-8"?>
<!-- Generator: Adobe Illustrator 21.0.0, SVG Export Plug-In . SVG Version: 6.00 Build 0)  -->
<svg version="1.1" id="Capa_1" xmlns="http://www.w3.org/2000/svg" xmlns:xlink="http://www.w3.org/1999/xlink" x="0px" y="0px"
	 viewBox="0 0 142 142" style="enable-background:new 0 0 142 142;" xml:space="preserve">
<g>
	<g>
		<g>
			<path d="M637.6,96.2c4.2-0.8,8.4-1.6,12.6-2.4c-0.5-0.5-0.9-0.9-1.4-1.4c-0.7,4.2-1.5,8.4-2.2,12.6c-0.1,0.6,0.2,1.1,0.8,1.4
				c6.8,2.4,13.7,4.8,20.5,7.2c0-0.7,0-1.4,0-2.1c-6.8,2.5-13.6,4.9-20.5,7.4c-0.6,0.2-0.9,0.7-0.8,1.4c0.9,4.3,1.9,8.7,2.8,13
				c0.5-0.5,0.9-0.9,1.4-1.4c-4.4-0.9-8.7-1.8-13.1-2.7c-0.6-0.1-1.1,0.2-1.4,0.8c-2.4,6.8-4.8,13.7-7.2,20.5c0.7,0,1.4,0,2.1,0
				c-2.5-6.8-4.9-13.6-7.4-20.5c-0.2-0.6-0.7-0.9-1.4-0.8c-4.4,1-8.8,1.9-13.1,2.9c0.5,0.5,0.9,0.9,1.4,1.4
				c0.9-4.4,1.9-8.8,2.8-13.2c0.1-0.6-0.2-1.1-0.8-1.4c-6.8-2.4-13.7-4.8-20.5-7.2c0,0.7,0,1.4,0,2.1c6.8-2.5,13.6-4.9,20.5-7.4
				c0.6-0.2,0.9-0.7,0.8-1.4c-0.9-4.3-1.7-8.5-2.6-12.8c-0.5,0.5-0.9,0.9-1.4,1.4c4.3,0.8,8.6,1.7,12.9,2.5c0.6,0.1,1.1-0.2,1.4-0.8
				c2.4-6.8,4.8-13.7,7.2-20.5c-0.7,0-1.4,0-2.1,0c2.5,6.8,4.9,13.6,7.4,20.5c0.5,1.3,2.6,0.8,2.1-0.6c-2.5-6.8-4.9-13.6-7.4-20.5
				c-0.4-1-1.8-1-2.1,0c-2.4,6.8-4.8,13.7-7.2,20.5c0.5-0.3,0.9-0.5,1.4-0.8c-4.3-0.8-8.6-1.7-12.9-2.5c-0.8-0.2-1.5,0.5-1.4,1.4
				c0.9,4.3,1.7,8.5,2.6,12.8c0.3-0.5,0.5-0.9,0.8-1.4c-6.8,2.5-13.6,4.9-20.5,7.4c-1,0.4-1,1.8,0,2.1c6.8,2.4,13.7,4.8,20.5,7.2
				c-0.3-0.5-0.5-0.9-0.8-1.4c-0.9,4.4-1.9,8.8-2.8,13.2c-0.2,0.8,0.5,1.5,1.4,1.4c4.4-1,8.8-1.9,13.1-2.9c-0.5-0.3-0.9-0.5-1.4-0.8
				c2.5,6.8,4.9,13.6,7.4,20.5c0.4,1,1.8,1,2.1,0c2.4-6.8,4.8-13.7,7.2-20.5c-0.5,0.3-0.9,0.5-1.4,0.8c4.4,0.9,8.7,1.8,13.1,2.7
				c0.8,0.2,1.5-0.5,1.4-1.4c-0.9-4.3-1.9-8.7-2.8-13c-0.3,0.5-0.5,0.9-0.8,1.4c6.8-2.5,13.6-4.9,20.5-7.4c1-0.4,1-1.8,0-2.1
				c-6.8-2.4-13.7-4.8-20.5-7.2c0.3,0.5,0.5,0.9,0.8,1.4c0.7-4.2,1.5-8.4,2.2-12.6c0.2-0.9-0.5-1.5-1.4-1.4
				c-4.2,0.8-8.4,1.6-12.6,2.4C635.7,94.3,636.2,96.5,637.6,96.2z"/>
		</g>
	</g>
	<g>
		<g>
			<path d="M630.9,124.2c-4.1-4.1-8.2-8.2-12.2-12.2c0,0.5,0,1,0,1.6c4.1-4.1,8.2-8.2,12.2-12.2c-0.5,0-1,0-1.6,0
				c4.1,4.1,8.2,8.2,12.2,12.2c0-0.5,0-1,0-1.6c-4.1,4.1-8.2,8.2-12.2,12.2c-1,1,0.6,2.6,1.6,1.6c4.1-4.1,8.2-8.2,12.2-12.2
				c0.4-0.4,0.4-1.1,0-1.6c-4.1-4.1-8.2-8.2-12.2-12.2c-0.4-0.4-1.1-0.4-1.6,0c-4.1,4.1-8.2,8.2-12.2,12.2c-0.4,0.4-0.4,1.1,0,1.6
				c4.1,4.1,8.2,8.2,12.2,12.2C630.3,126.8,631.9,125.2,630.9,124.2z"/>
		</g>
	</g>
</g>
<g>
	<path d="M95.4,123.8c21.5-10.6,37.2-36.2,30.2-60.5c-2.1-7.3-6.6-13.8-12.9-18.1c-2-1.4-4.3-2.5-6.7-3.1c-3.5-0.8-7.3-1.3-8.1-5.6
		c-0.4-2.2-3.2-1.6-3.9,0c-1.6,3.9-0.5,7.9,1.4,11.4c1,1.8,3.3,3.9,2.7,6.1c-0.5,1.9-2.7,3-4.5,2.9c-5.1-0.1-8.1-8.1-8.7-12.3
		c-0.5-3.6,0.6-6.8,1.7-10.1c3.9-11.9-1.1-25.5-12-32c-2.1-1.2-3.9,1.5-2.4,3.2c6.1,7.3-0.3,14.3-6.3,18.4c-5.8,4-11.7,8-16.7,13
		C42.8,43.3,38,50.8,35.3,59.3c-0.9,2.8-1.5,5.6-2,8.5c-0.4,2.6,0.1,7.1-3.1,8c-4.7,1.3-5-6.1-5.2-9.2c-0.2-1.8-2.8-3-3.8-1
		c-6.3,13.4-7.8,30.6-2.1,44.4c9.9,24.4,37.4,33.7,61.8,29.9c6.9-1.1,14-2.9,20.3-5.9c2.3-1.1,0.3-4.6-2-3.5
		c-13.5,6.4-30.7,8.3-45.1,4.4c-12.4-3.4-23.9-11.7-29.8-23.3c-4.5-8.8-5.4-19.1-3.9-28.8c0.4-2.8,1.1-5.7,1.9-8.6
		c1.1,3.5,3.3,6.1,7.7,5.6c4.4-0.5,6.4-3.5,6.8-7.5c0.6-6,2-11.9,4.5-17.3c3.7-8,9.6-14.6,16.4-20.1c4.9-3.9,10.4-6.9,15.2-11
		c3.9-3.3,5.9-8.1,5.5-12.8c3.3,4,5.6,9.2,5.8,14.2c0.4,8.1-5.1,14.5-2.5,22.9c2.1,6.9,8.3,16.4,16.7,11.6c2.5-1.4,4.3-4.1,4.1-7
		c-0.3-3.5-3-6.1-4.3-9.1c2.7,2,5.7,1.8,8.7,2.9c5.9,2.2,10.5,7.6,13.2,13.1c11.2,23.1-5.7,50.5-26.5,60.8
		C91,121.5,93.1,125,95.4,123.8z"/>
	<path d="M49,93.9c-1.6,13.2,2,26.1,13.1,34c5.1,3.6,11.5,6.2,17.8,6.9c2.6,0.3,2.6-3.8,0-4c-0.3,0-3.2-0.6-4.4-1
		c-3.6-1-7-2.5-10.2-4.5c-10.8-7-13.8-19.1-12.3-31.3C53.4,91.3,49.4,91.3,49,93.9z"/>
	<path d="M88.1,90.1c0.1,2.6,4.1,2.6,4,0C91.7,77.5,80.9,69,69,67.2c-1.8-0.3-3.6,1.9-2,3.4c3,2.6,3.4,5.7-0.3,8.1
		c-3.6,2.4-6.9,4.3-9,8.3c-2,3.7-2.7,8.6-1.4,12.7c0.8,2.5,4.7,1.4,3.9-1.1c-0.5-1.7-0.6-3.7-0.3-5.5c0.8-5.9,5.1-8.3,9.6-11.3
		c3.6-2.5,4.6-6.1,3.5-9.5C81,75.1,87.8,81.1,88.1,90.1z"/>
	<path d="M100.5,114.3c6-9.5,5.2-21.8-1-30.9c-1.4-2.1-4.9-0.1-3.5,2c5.4,8,6.3,18.5,1,26.9C95.6,114.5,99.1,116.5,100.5,114.3z"/>
</g>
</svg>
