<?xml version="1.0" encoding="utf-8"?>
<!-- Generator: Adobe Illustrator 21.0.0, SVG Export Plug-In . SVG Version: 6.00 Build 0)  -->
<svg version="1.1" id="Capa_1" xmlns="http://www.w3.org/2000/svg" xmlns:xlink="http://www.w3.org/1999/xlink" x="0px" y="0px"
	 viewBox="0 0 142 142" style="enable-background:new 0 0 142 142;" xml:space="preserve">
<style type="text/css">
	.st0{fill:#FFFFFF;}
</style>
<g>
	<path class="st0" d="M139.6,69.1c-11.6-4.1-23.2-8.2-34.9-12.3c1.2-6.9,2.4-13.8,3.7-20.7c0.3-1.5-0.9-2.7-2.4-2.4
		c-6.9,1.3-13.7,2.6-20.6,3.9C81.2,26,77,14.4,72.9,2.8c-0.7-1.8-3.1-1.9-3.8,0C65,14.5,60.9,26.1,56.8,37.7
		c-7-1.4-14.1-2.7-21.1-4.1c-1.5-0.3-2.7,0.9-2.4,2.4c1.4,7,2.9,14,4.3,21.1C26,61.2,14.4,65.4,2.8,69.6c-1.8,0.7-1.9,3.1,0,3.8
		c11.6,4.1,23.2,8.2,34.8,12.2c-1.5,7.2-3.1,14.5-4.6,21.7c-0.3,1.5,0.9,2.7,2.4,2.4c7.2-1.6,14.4-3.2,21.6-4.8
		c4.2,11.6,8.3,23.1,12.5,34.7c0.7,1.8,3.1,1.9,3.8,0c4.1-11.6,8.2-23.2,12.2-34.8c7.2,1.5,14.4,3,21.5,4.4c1.5,0.3,2.7-0.9,2.4-2.4
		c-1.6-7.1-3.1-14.3-4.7-21.4c11.6-4.2,23.1-8.3,34.7-12.5C141.5,72.2,141.5,69.8,139.6,69.1z M82.4,102c-3.7,10.4-7.3,20.8-11,31.2
		c-3.7-10.4-7.5-20.8-11.2-31.2c-0.4-1-1.3-1.6-2.4-1.4c-6.8,1.5-13.6,3-20.3,4.5c1.4-6.8,2.9-13.6,4.3-20.4c0.2-1.1-0.3-2-1.4-2.4
		C30,78.6,19.6,75,9.2,71.3C19.6,67.7,30,64,40.4,60.2c1-0.4,1.6-1.3,1.4-2.4c-1.3-6.6-2.7-13.2-4-19.8c6.6,1.3,13.3,2.6,19.9,3.8
		c1.1,0.2,2-0.3,2.4-1.4C63.7,30,67.4,19.6,71,9.2c3.7,10.4,7.5,20.8,11.2,31.2c0.2,0.7,0.7,1.1,1.3,1.2c0.3,0.1,0.7,0.2,1.1,0.1
		c6.5-1.2,13-2.4,19.5-3.7c-1.2,6.5-2.3,13-3.5,19.6c-0.2,1.1,0.3,2,1.4,2.4c10.4,3.7,20.8,7.3,31.2,11
		c-10.4,3.7-20.8,7.5-31.2,11.2c-1,0.4-1.6,1.3-1.4,2.4c1.5,6.7,2.9,13.5,4.4,20.2c-6.8-1.4-13.5-2.8-20.3-4.2
		C83.7,100.4,82.8,101,82.4,102z"/>
	<path class="st0" d="M94.4,69.8C87.1,62.6,79.9,55.3,72.6,48c-0.7-0.7-2-0.8-2.8,0C62.6,55.3,55.3,62.6,48,69.8
		c-0.7,0.7-0.8,2,0,2.8c7.3,7.3,14.5,14.5,21.8,21.8c0.4,0.4,0.9,0.6,1.3,0.6h0.1c0,0,0,0,0.1,0c0.4,0,0.9-0.2,1.3-0.6
		c7.3-7.3,14.5-14.5,21.8-21.8C95.2,71.9,95.2,70.6,94.4,69.8z M71.2,90.3c-6.3-6.3-12.7-12.7-19-19c6.3-6.3,12.7-12.7,19-19
		c6.3,6.3,12.7,12.7,19,19C83.9,77.6,77.6,83.9,71.2,90.3z"/>
</g>
</svg>
