<?xml version="1.0" encoding="utf-8"?>
<!-- Generator: Adobe Illustrator 21.0.0, SVG Export Plug-In . SVG Version: 6.00 Build 0)  -->
<svg version="1.1" id="Capa_1" xmlns="http://www.w3.org/2000/svg" xmlns:xlink="http://www.w3.org/1999/xlink" x="0px" y="0px"
	 viewBox="0 0 142 142" style="enable-background:new 0 0 142 142;" xml:space="preserve">
<g>
	<g>
		<g>
			<path d="M637.6,96.2c4.2-0.8,8.4-1.6,12.6-2.4c-0.5-0.5-0.9-0.9-1.4-1.4c-0.7,4.2-1.5,8.4-2.2,12.6c-0.1,0.6,0.2,1.1,0.8,1.4
				c6.8,2.4,13.7,4.8,20.5,7.2c0-0.7,0-1.4,0-2.1c-6.8,2.5-13.6,4.9-20.5,7.4c-0.6,0.2-0.9,0.7-0.8,1.4c0.9,4.3,1.9,8.7,2.8,13
				c0.5-0.5,0.9-0.9,1.4-1.4c-4.4-0.9-8.7-1.8-13.1-2.7c-0.6-0.1-1.1,0.2-1.4,0.8c-2.4,6.8-4.8,13.7-7.2,20.5c0.7,0,1.4,0,2.1,0
				c-2.5-6.8-4.9-13.6-7.4-20.5c-0.2-0.6-0.7-0.9-1.4-0.8c-4.4,1-8.8,1.9-13.1,2.9c0.5,0.5,0.9,0.9,1.4,1.4
				c0.9-4.4,1.9-8.8,2.8-13.2c0.1-0.6-0.2-1.1-0.8-1.4c-6.8-2.4-13.7-4.8-20.5-7.2c0,0.7,0,1.4,0,2.1c6.8-2.5,13.6-4.9,20.5-7.4
				c0.6-0.2,0.9-0.7,0.8-1.4c-0.9-4.3-1.7-8.5-2.6-12.8c-0.5,0.5-0.9,0.9-1.4,1.4c4.3,0.8,8.6,1.7,12.9,2.5c0.6,0.1,1.1-0.2,1.4-0.8
				c2.4-6.8,4.8-13.7,7.2-20.5c-0.7,0-1.4,0-2.1,0c2.5,6.8,4.9,13.6,7.4,20.5c0.5,1.3,2.6,0.8,2.1-0.6c-2.5-6.8-4.9-13.6-7.4-20.5
				c-0.4-1-1.8-1-2.1,0c-2.4,6.8-4.8,13.7-7.2,20.5c0.5-0.3,0.9-0.5,1.4-0.8c-4.3-0.8-8.6-1.7-12.9-2.5c-0.8-0.2-1.5,0.5-1.4,1.4
				c0.9,4.3,1.7,8.5,2.6,12.8c0.3-0.5,0.5-0.9,0.8-1.4c-6.8,2.5-13.6,4.9-20.5,7.4c-1,0.4-1,1.8,0,2.1c6.8,2.4,13.7,4.8,20.5,7.2
				c-0.3-0.5-0.5-0.9-0.8-1.4c-0.9,4.4-1.9,8.8-2.8,13.2c-0.2,0.8,0.5,1.5,1.4,1.4c4.4-1,8.8-1.9,13.1-2.9c-0.5-0.3-0.9-0.5-1.4-0.8
				c2.5,6.8,4.9,13.6,7.4,20.5c0.4,1,1.8,1,2.1,0c2.4-6.8,4.8-13.7,7.2-20.5c-0.5,0.3-0.9,0.5-1.4,0.8c4.4,0.9,8.7,1.8,13.1,2.7
				c0.8,0.2,1.5-0.5,1.4-1.4c-0.9-4.3-1.9-8.7-2.8-13c-0.3,0.5-0.5,0.9-0.8,1.4c6.8-2.5,13.6-4.9,20.5-7.4c1-0.4,1-1.8,0-2.1
				c-6.8-2.4-13.7-4.8-20.5-7.2c0.3,0.5,0.5,0.9,0.8,1.4c0.7-4.2,1.5-8.4,2.2-12.6c0.2-0.9-0.5-1.5-1.4-1.4
				c-4.2,0.8-8.4,1.6-12.6,2.4C635.7,94.3,636.2,96.5,637.6,96.2z"/>
		</g>
	</g>
	<g>
		<g>
			<path d="M630.9,124.2c-4.1-4.1-8.2-8.2-12.2-12.2c0,0.5,0,1,0,1.6c4.1-4.1,8.2-8.2,12.2-12.2c-0.5,0-1,0-1.6,0
				c4.1,4.1,8.2,8.2,12.2,12.2c0-0.5,0-1,0-1.6c-4.1,4.1-8.2,8.2-12.2,12.2c-1,1,0.6,2.6,1.6,1.6c4.1-4.1,8.2-8.2,12.2-12.2
				c0.4-0.4,0.4-1.1,0-1.6c-4.1-4.1-8.2-8.2-12.2-12.2c-0.4-0.4-1.1-0.4-1.6,0c-4.1,4.1-8.2,8.2-12.2,12.2c-0.4,0.4-0.4,1.1,0,1.6
				c4.1,4.1,8.2,8.2,12.2,12.2C630.3,126.8,631.9,125.2,630.9,124.2z"/>
		</g>
	</g>
</g>
<path d="M136.6,45.8c-0.6-9.3-2.3-18.5-4.7-27.5c-0.9-3.4-1.6-8.5-3.7-11.5c-1.9-2.8-7.3-2.4-10.3-2.7c-8.8-0.8-17.6-0.7-26.4,0.2
	c-26,2.7-50.8,13.2-69.4,31.9c-23.9,24.1-21.4,62.1,1.8,85.8c1,1,2.6,0.6,3.5-0.3c2.8-3,5.5-6.1,8.3-9.1c2-2.1,5.4-4.7,5.9-7.7
	c0.3-1.9,0-4.2-0.4-6.4c0.3,0.6,0.5,1.2,0.8,1.8c0.8,1.7,2.9,2.2,4.2,0.7c6.5-7.1,13-14.2,19.5-21.4c2.1-2.3,2.6-3.4,2.2-5.6
	c1,0.7,2.5,0.4,3.3-0.5c0.1-0.1,0.1-0.1,0.2-0.2c-0.4,0.8-0.4,1.9,0.1,2.6c-1.5,0.3-2.8,0.9-4.1,2.6c-6,7.7-11.9,15.6-17.8,23.4
	c-1.3,1.8,0,4,2.1,4c0.1,0,0.2,0,0.4,0c-1.5,0.4-3,0.7-4.5,1.1c-3.3,0.8-4.5,3.6-6.6,6.2c-3,4-6.1,8-9.1,12c-0.7,1-0.8,2.7,0.3,3.5
	c26.7,17.9,61.8,12.7,82.9-11.2C132,97.4,138.4,71.7,136.6,45.8z M71.9,80.3C72.1,80,72.1,80.1,71.9,80.3L71.9,80.3z M37.2,126.2
	c2.2-2.9,4.3-5.7,6.5-8.6c1.1-1.5,3.7-3.8,4.3-5.7c0,0,0,0,0-0.1c0.3-0.1,0.6-0.1,0.8-0.2c9.2-1.6,18.3-4,27.5-6.1
	c3-0.7,2.8-4.9-0.4-4.9c-6.5,0.1-13,0.2-19.5,0.2c4.6-6.1,9.2-12.1,13.8-18.2c0.4-0.5,1.2-1.2,1.5-1.9c1.6,0,3.5-0.4,5-0.5
	c4.8-0.4,9.7-0.8,14.5-1.2c2.7-0.2,3-4.5,0.2-4.9c-4.5-0.6-8.9-1.1-13.4-1.7c10-13.2,20-26.3,30-39.5c1.9-2.5-1.6-5.5-3.8-3.1
	c-11.5,12.6-23,25.3-34.5,37.9c-2.2-3.7-4.5-7.3-6.7-11c-1.5-2.5-5.1-0.3-4.3,2.2c1.5,5.3,3,10.6,4.5,15.9
	C57.1,81.7,51.1,88.3,45,95c-1.9-4.3-3.9-8.6-5.8-13c-1.1-2.4-5-1.8-4.8,1.1c0.4,3.5,0.7,7,1.1,10.6c0.3,3.1-0.1,7.6,0.9,10.7
	c-0.2,0.2-0.4,0.5-0.8,0.9c-1.5,1.6-3,3.3-4.5,4.9c-1.9,2.1-3.8,4.2-5.7,6.2C14.6,104.4,8.7,88.3,10.2,72
	C11.8,54.4,22.3,40.9,36,30.4c20.8-15.9,47.2-22.6,73.1-22c5,0.1,10.1,0.4,15,1.3c13.3,33.8,11.1,76.3-12.8,104.6
	C92.6,135.6,61.4,141.1,37.2,126.2z"/>
</svg>
