<?xml version="1.0" encoding="utf-8"?>
<!-- Generator: Adobe Illustrator 21.0.0, SVG Export Plug-In . SVG Version: 6.00 Build 0)  -->
<svg version="1.1" id="Capa_1" xmlns="http://www.w3.org/2000/svg" xmlns:xlink="http://www.w3.org/1999/xlink" x="0px" y="0px"
	 viewBox="0 0 142 142" style="enable-background:new 0 0 142 142;" xml:space="preserve">
<style type="text/css">
	.st0{fill:#FFFFFF;}
</style>
<path class="st0" d="M136.6,45.8c-0.6-9.3-2.3-18.5-4.7-27.5c-0.9-3.4-1.6-8.5-3.7-11.5c-1.9-2.8-7.3-2.4-10.3-2.7
	c-8.8-0.8-17.6-0.7-26.4,0.2C65.5,7,40.7,17.5,22.1,36.2C-1.8,60.3,0.7,98.3,23.9,122c1,1,2.6,0.6,3.5-0.3c2.8-3,5.5-6.1,8.3-9.1
	c2-2.1,5.4-4.7,5.9-7.7c0.3-1.9,0-4.2-0.4-6.4c0.3,0.6,0.5,1.2,0.8,1.8c0.8,1.7,2.9,2.2,4.2,0.7c6.5-7.1,13-14.2,19.5-21.4
	c2.1-2.3,2.6-3.4,2.2-5.6c1,0.7,2.5,0.4,3.3-0.5c0.1-0.1,0.1-0.1,0.2-0.2c-0.4,0.8-0.4,1.9,0.1,2.6c-1.5,0.3-2.8,0.9-4.1,2.6
	c-6,7.7-11.9,15.6-17.8,23.4c-1.3,1.8,0,4,2.1,4c0.1,0,0.2,0,0.4,0c-1.5,0.4-3,0.7-4.5,1.1c-3.3,0.8-4.5,3.6-6.6,6.2
	c-3,4-6.1,8-9.1,12c-0.7,1-0.8,2.7,0.3,3.5c26.7,17.9,61.8,12.7,82.9-11.2C132,97.4,138.4,71.7,136.6,45.8z M71.9,80.3
	C72.1,80,72.1,80.1,71.9,80.3L71.9,80.3z M37.2,126.2c2.2-2.9,4.3-5.7,6.5-8.6c1.1-1.5,3.7-3.8,4.3-5.7c0,0,0,0,0-0.1
	c0.3-0.1,0.6-0.1,0.8-0.2c9.2-1.6,18.3-4,27.5-6.1c3-0.7,2.8-4.9-0.4-4.9c-6.5,0.1-13,0.2-19.5,0.2c4.6-6.1,9.2-12.1,13.8-18.2
	c0.4-0.5,1.2-1.2,1.5-1.9c1.6,0,3.5-0.4,5-0.5c4.8-0.4,9.7-0.8,14.5-1.2c2.7-0.2,3-4.5,0.2-4.9c-4.5-0.6-8.9-1.1-13.4-1.7
	c10-13.2,20-26.3,30-39.5c1.9-2.5-1.6-5.5-3.8-3.1c-11.5,12.6-23,25.3-34.5,37.9c-2.2-3.7-4.5-7.3-6.7-11c-1.5-2.5-5.1-0.3-4.3,2.2
	c1.5,5.3,3,10.6,4.5,15.9C57.1,81.7,51.1,88.3,45,95c-1.9-4.3-3.9-8.6-5.8-13c-1.1-2.4-5-1.8-4.8,1.1c0.4,3.5,0.7,7,1.1,10.6
	c0.3,3.1-0.1,7.6,0.9,10.7c-0.2,0.2-0.4,0.5-0.8,0.9c-1.5,1.6-3,3.3-4.5,4.9c-1.9,2.1-3.8,4.2-5.7,6.2C14.6,104.4,8.7,88.3,10.2,72
	C11.8,54.4,22.3,40.9,36,30.4c20.8-15.9,47.2-22.6,73.1-22c5,0.1,10.1,0.4,15,1.3c13.3,33.8,11.1,76.3-12.8,104.6
	C92.6,135.6,61.4,141.1,37.2,126.2z"/>
</svg>
