<?xml version="1.0" encoding="utf-8"?>
<!-- Generator: Adobe Illustrator 21.0.0, SVG Export Plug-In . SVG Version: 6.00 Build 0)  -->
<svg version="1.1" id="Capa_1" xmlns="http://www.w3.org/2000/svg" xmlns:xlink="http://www.w3.org/1999/xlink" x="0px" y="0px"
	 viewBox="0 0 142 142" style="enable-background:new 0 0 142 142;" xml:space="preserve">
<style type="text/css">
	.st0{fill:#FFFFFF;}
</style>
<g>
	<path class="st0" d="M95.6,5.3C67.8-5.1,35.5,3.8,16.8,26.7c-18.6,22.8-21.1,55.8-5.7,81.1c15.3,25.1,45.3,38.2,74.1,32.4
		c32.6-6.5,56-35.9,56.3-68.9C141.3,42,123.1,15.5,95.6,5.3z M94,133.7c-26.1,9.4-55.8,1.4-73.7-19.7c-18-21.3-20.4-52.7-6.1-76.7
		c14.2-23.8,42.7-36.6,70-31.1c30.9,6.2,53.2,33.8,53.4,65.1C137.4,98.8,120.1,124.2,94,133.7z"/>
	<path class="st0" d="M87.7,26.9c-18.7-7-40.5-1.1-53.1,14.3c-12.5,15.3-14.2,37.4-4,54.4c10.2,16.9,30.3,25.8,49.6,22.1
		c22.2-4.2,38-24.1,38.3-46.5C118.3,51.6,106.2,33.9,87.7,26.9z M86.1,112c-16.9,6.2-36.3,1-48-12.6c-11.8-13.8-13.6-34.3-4.4-50
		C43,33.6,61.8,25.1,79.8,28.7c20.2,4.1,34.5,22.1,34.8,42.5C114.3,89.3,103.2,105.8,86.1,112z"/>
</g>
</svg>
