<?xml version="1.0" encoding="utf-8"?>
<!-- Generator: Adobe Illustrator 21.0.0, SVG Export Plug-In . SVG Version: 6.00 Build 0)  -->
<svg version="1.1" xmlns="http://www.w3.org/2000/svg" xmlns:xlink="http://www.w3.org/1999/xlink" x="0px" y="0px"
	 viewBox="0 0 424 424" style="enable-background:new 0 0 424 424;" xml:space="preserve">
<style type="text/css">
	.st0{fill:#4C241D;}
	.st1{fill:#C1DBDC;}
	.st2{fill:#FFFFFF;}
	.st3{fill:#F53E28;}
	.st4{fill:#EDEBDC;}
</style>
<g id="Capa_1">
	<g>
		<path class="st0" d="M383.1,67.3c-3.8,0-6.8-3.1-6.8-6.8V40c0-3.8,3.1-6.8,6.8-6.8s6.8,3,6.8,6.8v20.4
			C389.9,64.2,386.9,67.3,383.1,67.3z"/>
		<path class="st0" d="M383.1,115c-3.8,0-6.8-3-6.8-6.8V87.7c0-3.8,3.1-6.8,6.8-6.8s6.8,3.1,6.8,6.8v20.4
			C389.9,111.9,386.9,115,383.1,115z"/>
		<path class="st0" d="M369.5,80.9h-20.4c-3.8,0-6.8-3-6.8-6.8c0-3.8,3.1-6.8,6.8-6.8h20.4c3.8,0,6.8,3,6.8,6.8
			C376.3,77.8,373.3,80.9,369.5,80.9z"/>
		<path class="st0" d="M417.2,80.9h-20.4c-3.8,0-6.8-3-6.8-6.8c0-3.8,3.1-6.8,6.8-6.8h20.4c3.8,0,6.8,3,6.8,6.8
			C424,77.8,421,80.9,417.2,80.9z"/>
		<path class="st0" d="M21,214.9c-3.4,0-6.8-0.8-9.9-2.5c-4.9-2.6-8.6-7.1-10.2-12.4s-1.1-11.1,1.6-16c2.6-4.9,7.1-8.6,12.4-10.2
			c11.1-3.4,22.8,2.9,26.2,14c3.4,11.1-2.9,22.8-14,26.2C25.1,214.6,23,214.9,21,214.9z M21,186.5c-0.7,0-1.4,0.1-2.1,0.3
			c-1.9,0.6-3.4,1.8-4.4,3.6c-0.9,1.7-1.1,3.7-0.6,5.6c0.6,1.9,1.8,3.4,3.6,4.4c1.7,0.9,3.7,1.1,5.6,0.6c3.9-1.2,6.1-5.3,4.9-9.2
			C27.1,188.5,24.2,186.5,21,186.5z"/>
		<path class="st0" d="M34.5,48c-11.6,0-21-9.4-21-21s9.4-21,21-21s21,9.4,21,21S46.1,48,34.5,48z M34.5,19.6
			c-4.1,0-7.4,3.3-7.4,7.4c0,4.1,3.3,7.4,7.4,7.4c4.1,0,7.4-3.3,7.4-7.4C41.9,22.9,38.5,19.6,34.5,19.6z"/>
		<path class="st0" d="M98.8,119.9c-1.7,0-3.5-0.7-4.8-2c-2.7-2.7-2.7-7,0-9.6l20.1-20.1c2.7-2.7,7-2.7,9.6,0c2.7,2.7,2.7,7,0,9.6
			l-20.1,20.1C102.3,119.3,100.6,119.9,98.8,119.9z"/>
		<path class="st0" d="M118.9,119.9c-1.7,0-3.5-0.7-4.8-2L94,97.9c-2.7-2.7-2.7-7,0-9.6c2.7-2.7,7-2.7,9.6,0l20.1,20.1
			c2.7,2.7,2.7,7,0,9.6C122.4,119.3,120.7,119.9,118.9,119.9z"/>
		<path class="st0" d="M223.5,39c0,6.3-5.1,11.4-11.4,11.4c-6.3,0-11.4-5.1-11.4-11.4c0-6.3,5.1-11.4,11.4-11.4
			C218.4,27.6,223.5,32.7,223.5,39z"/>
		<path class="st0" d="M414.2,182c0,6.3-5.1,11.4-11.4,11.4s-11.4-5.1-11.4-11.4c0-6.3,5.1-11.4,11.4-11.4S414.2,175.7,414.2,182z"
			/>
	</g>
</g>
<g id="Capa_2">
	<path class="st1" d="M317.9,240.6c0-35.8-15.1-70.4-41.5-94.9c-2.4-2.2-6.1-2.1-8.3,0.3c-0.3,0.3-0.5,0.6-0.7,0.9L235,127.1
		c0.2-0.3,0.4-0.7,0.5-1c1.1-3-0.5-6.4-3.5-7.5c-14.4-5.3-29.6-7.9-45.2-7.9c-72.3,0-131,58.3-131,130c0,0,0,0,0,0h-0.3
		c0,43,34.4,90,54.9,114.2c25.3,29.8,59.7,60,76.4,60c1.9,0,5.5,0,26.4-17.9c8.4-7.2,25.1-22.1,43.3-41.9
		c28.1-30.8,61.6-75.5,61.6-114.3H317.9z"/>
	<path class="st2" d="M245,411.2c17.4,0.7,125.2-98.3,125.2-168.1H119.8C119.8,312.9,214.6,410.1,245,411.2z"/>
	<path class="st3" d="M288.2,126.6c-13.5-4.9-28-7.6-43.2-7.6c-69.1,0-125.2,55.6-125.2,124.1h250.4c0-35.7-15.2-67.9-39.6-90.6"/>
	<path class="st0" d="M370.2,249H119.8c-3.2,0-5.8-2.6-5.8-5.8c0-71.7,58.8-130,131-130c15.5,0,30.7,2.7,45.2,7.9
		c3,1.1,4.6,4.5,3.5,7.5c-1.1,3-4.5,4.6-7.5,3.5c-13.2-4.8-27-7.2-41.2-7.2c-63.8,0-116.1,49.9-119.2,112.4h238.4
		c-1.5-30.8-14.7-59.2-37.6-80.5c-2.4-2.2-2.5-5.9-0.3-8.3c2.2-2.4,5.9-2.5,8.3-0.3c26.4,24.5,41.5,59.1,41.5,94.9
		C376,246.4,373.4,249,370.2,249z"/>
	<path class="st3" d="M308.2,145.7c-2-1.3-4.1-2.6-6.2-3.8"/>
	<path class="st0" d="M308.2,151.4c-1.1,0-2.2-0.3-3.1-0.9c-1.9-1.3-3.9-2.5-5.9-3.7c-2.7-1.6-3.7-5.1-2.1-7.8
		c1.6-2.7,5.1-3.7,7.8-2.1c2.2,1.3,4.4,2.6,6.5,4c2.6,1.7,3.4,5.3,1.6,7.9C311.9,150.5,310.1,151.4,308.2,151.4z"/>
	<path class="st4" d="M285,244.3c0,22.1-17.9,40-40,40s-40-17.9-40-40s17.9-40,40-40S285,222.2,285,244.3z"/>
	<path class="st0" d="M245,290.1c-25.3,0-45.8-20.6-45.8-45.8c0-25.3,20.6-45.8,45.8-45.8c25.3,0,45.8,20.6,45.8,45.8
		C290.8,269.5,270.3,290.1,245,290.1z M245,210.1c-18.8,0-34.1,15.3-34.1,34.2s15.3,34.2,34.1,34.2c18.8,0,34.2-15.3,34.2-34.2
		S263.8,210.1,245,210.1z"/>
	<path class="st4" d="M262.4,244.3c0,9.6-7.8,17.4-17.4,17.4c-9.6,0-17.4-7.8-17.4-17.4c0-9.6,7.8-17.4,17.4-17.4
		C254.6,226.8,262.4,234.6,262.4,244.3z"/>
	<path class="st0" d="M364.1,243.2c0,18.8-9.7,51.9-55.9,103.3c-28.5,31.7-57.7,55.1-64,58.5c-9.1-1.3-36.8-21-66.2-55.6
		c-33-38.9-52-77.7-52-106.2h-12.3c0,43,34.4,90,54.9,114.2c25.3,29.8,59.7,60,76.4,60c1.9,0,5.5,0,26.4-17.9
		c8.4-7.2,25.1-22.1,43.3-41.9c28.1-30.8,61.6-75.5,61.6-114.3H364.1z"/>
</g>
</svg>
