<?xml version="1.0" encoding="utf-8"?>
<!-- Generator: Adobe Illustrator 21.0.0, SVG Export Plug-In . SVG Version: 6.00 Build 0)  -->
<svg version="1.1" id="Capa_1" xmlns="http://www.w3.org/2000/svg" xmlns:xlink="http://www.w3.org/1999/xlink" x="0px" y="0px"
	 viewBox="0 0 142 142" style="enable-background:new 0 0 142 142;" xml:space="preserve">
<style type="text/css">
	.st0{fill:#FFFFFF;}
</style>
<g>
	<path class="st0" d="M57.6,97.2c11.5-7.9,23.1-15.8,34.6-23.7c2.1-1.4,5-2.8,6.8-4.7c2.1-2.2,2-6.7,2.5-9.6
		c2.3-12.7,4.6-25.3,6.9-38c0.2-1.3-0.6-2.7-2-2.7c-18.2,0-36.4,0-54.6,0c-1.8,0-3.8-0.4-5.3,0.7c-1.8,1.2-3.2,3.7-4.6,5.2
		c-7.4,8.3-14.7,16.6-22.1,25c-5.5,6.2-11,12.5-16.5,18.7c-0.5,0.3-0.9,0.9-0.8,1.7C3.7,79.6,4.8,89.5,6,99.3c0.1,1,0.6,1.7,1.6,2
		c4.8,1.5,9.5,3,14.3,4.4c3.4,1,6.7,2.1,10.1,3.1c1.6,0.5,3.5,1.5,5.1,1.6c2.4,0.1,4.7-2.3,6.5-3.5C48.1,103.7,52.9,100.4,57.6,97.2
		z M48.9,22.7C49.4,22.1,49.4,22.5,48.9,22.7L48.9,22.7z M37.1,105.9c-0.7-0.3-1.9-0.4-2.2-0.5c-3.4-1.1-6.8-2.1-10.2-3.2
		c-4.9-1.5-9.8-3-14.7-4.6c-1.1-9.1-2.2-18.1-3.2-27.2c11.5-13,23.2-26.2,34.8-39.3c2.3-2.5,5.1-5,7-7.9c0.1-0.2,0.2-0.3,0.3-0.4
		c0.5,0,1.1-0.1,1.5-0.1c9.9,0,19.8,0,29.7,0c7.9,0,15.8,0,23.7,0c-1.7,9.6-3.5,19.2-5.2,28.8c-0.5,2.9-1.1,5.8-1.6,8.7
		c-0.2,1.2-1.4,4.2-1,5.5c-1.2,0.5-2.5,1.7-3.5,2.5c-10.6,7.2-21.1,14.5-31.7,21.7c-5.3,3.6-10.6,7.3-15.9,10.9
		c-1.7,1.2-3.5,2.4-5.2,3.6C39.2,104.7,37.8,105.4,37.1,105.9z"/>
	<path class="st0" d="M140.7,77.7c-8-19.2-15.9-38.4-23.9-57.6c-0.2-0.5-0.5-0.9-0.9-1.1c-0.1-0.1-0.2-0.1-0.3-0.1l0,0
		c-0.9-0.5-2-0.4-2.6,0.5c-0.4,0.4-0.6,0.9-0.4,1.5c-2.4,14-4.8,28.1-7.2,42.1c-0.3,1.9-1.1,4.2-1.1,6.2s1.1,3,2.4,4.5
		c4.5,5.5,9,11.1,13.6,16.6c0.6,0.7,1.8,0.8,2.6,0.3c5.6-3.5,11.2-7,16.9-10.5C140.4,79.6,141,78.5,140.7,77.7z M108.6,69.2
		c2.3-13.7,4.7-27.4,7-41c6.8,16.4,13.6,32.8,20.4,49.2c-4.6,2.9-9.2,5.7-13.8,8.6C117.7,80.4,113.1,74.8,108.6,69.2z"/>
	<path class="st0" d="M116.9,91.5c-4.5-5.2-9.1-10.3-13.6-15.5c-0.6-0.7-1.8-0.8-2.6-0.3C81.9,87.6,63,99.6,44.1,111.5
		c-1.6,1-1.3,3.3,0.5,3.9c5.4,1.7,10.7,3.4,16.1,5.1c3.1,1,9.1,4.3,12.4,3c4.2-1.7,8.2-5.4,12-7.9c6.4-4.3,12.9-8.5,19.3-12.8
		c4-2.7,8.1-5.3,12.1-8c0.6-0.4,0.9-1,1-1.6C117.6,92.6,117.4,92,116.9,91.5z M77.1,115.8c-1.1,0.7-4.6,2.3-5.7,3.5
		c-1.2-0.7-2.9-0.9-4.2-1.3c-5.7-1.8-11.3-3.6-17-5.4c17.1-10.8,34.2-21.6,51.3-32.4c3.6,4.1,7.2,8.2,10.8,12.3
		C100.5,100.3,88.8,108.1,77.1,115.8z"/>
</g>
</svg>
