<?xml version="1.0" encoding="utf-8"?>
<!-- Generator: Adobe Illustrator 21.0.0, SVG Export Plug-In . SVG Version: 6.00 Build 0)  -->
<svg version="1.1" id="Capa_1" xmlns="http://www.w3.org/2000/svg" xmlns:xlink="http://www.w3.org/1999/xlink" x="0px" y="0px"
	 viewBox="0 0 142 142" style="enable-background:new 0 0 142 142;" xml:space="preserve">
<g>
	<g>
		<g>
			<path d="M637.6,96.2c4.2-0.8,8.4-1.6,12.6-2.4c-0.5-0.5-0.9-0.9-1.4-1.4c-0.7,4.2-1.5,8.4-2.2,12.6c-0.1,0.6,0.2,1.1,0.8,1.4
				c6.8,2.4,13.7,4.8,20.5,7.2c0-0.7,0-1.4,0-2.1c-6.8,2.5-13.6,4.9-20.5,7.4c-0.6,0.2-0.9,0.7-0.8,1.4c0.9,4.3,1.9,8.7,2.8,13
				c0.5-0.5,0.9-0.9,1.4-1.4c-4.4-0.9-8.7-1.8-13.1-2.7c-0.6-0.1-1.1,0.2-1.4,0.8c-2.4,6.8-4.8,13.7-7.2,20.5c0.7,0,1.4,0,2.1,0
				c-2.5-6.8-4.9-13.6-7.4-20.5c-0.2-0.6-0.7-0.9-1.4-0.8c-4.4,1-8.8,1.9-13.1,2.9c0.5,0.5,0.9,0.9,1.4,1.4
				c0.9-4.4,1.9-8.8,2.8-13.2c0.1-0.6-0.2-1.1-0.8-1.4c-6.8-2.4-13.7-4.8-20.5-7.2c0,0.7,0,1.4,0,2.1c6.8-2.5,13.6-4.9,20.5-7.4
				c0.6-0.2,0.9-0.7,0.8-1.4c-0.9-4.3-1.7-8.5-2.6-12.8c-0.5,0.5-0.9,0.9-1.4,1.4c4.3,0.8,8.6,1.7,12.9,2.5c0.6,0.1,1.1-0.2,1.4-0.8
				c2.4-6.8,4.8-13.7,7.2-20.5c-0.7,0-1.4,0-2.1,0c2.5,6.8,4.9,13.6,7.4,20.5c0.5,1.3,2.6,0.8,2.1-0.6c-2.5-6.8-4.9-13.6-7.4-20.5
				c-0.4-1-1.8-1-2.1,0c-2.4,6.8-4.8,13.7-7.2,20.5c0.5-0.3,0.9-0.5,1.4-0.8c-4.3-0.8-8.6-1.7-12.9-2.5c-0.8-0.2-1.5,0.5-1.4,1.4
				c0.9,4.3,1.7,8.5,2.6,12.8c0.3-0.5,0.5-0.9,0.8-1.4c-6.8,2.5-13.6,4.9-20.5,7.4c-1,0.4-1,1.8,0,2.1c6.8,2.4,13.7,4.8,20.5,7.2
				c-0.3-0.5-0.5-0.9-0.8-1.4c-0.9,4.4-1.9,8.8-2.8,13.2c-0.2,0.8,0.5,1.5,1.4,1.4c4.4-1,8.8-1.9,13.1-2.9c-0.5-0.3-0.9-0.5-1.4-0.8
				c2.5,6.8,4.9,13.6,7.4,20.5c0.4,1,1.8,1,2.1,0c2.4-6.8,4.8-13.7,7.2-20.5c-0.5,0.3-0.9,0.5-1.4,0.8c4.4,0.9,8.7,1.8,13.1,2.7
				c0.8,0.2,1.5-0.5,1.4-1.4c-0.9-4.3-1.9-8.7-2.8-13c-0.3,0.5-0.5,0.9-0.8,1.4c6.8-2.5,13.6-4.9,20.5-7.4c1-0.4,1-1.8,0-2.1
				c-6.8-2.4-13.7-4.8-20.5-7.2c0.3,0.5,0.5,0.9,0.8,1.4c0.7-4.2,1.5-8.4,2.2-12.6c0.2-0.9-0.5-1.5-1.4-1.4
				c-4.2,0.8-8.4,1.6-12.6,2.4C635.7,94.3,636.2,96.5,637.6,96.2z"/>
		</g>
	</g>
	<g>
		<g>
			<path d="M630.9,124.2c-4.1-4.1-8.2-8.2-12.2-12.2c0,0.5,0,1,0,1.6c4.1-4.1,8.2-8.2,12.2-12.2c-0.5,0-1,0-1.6,0
				c4.1,4.1,8.2,8.2,12.2,12.2c0-0.5,0-1,0-1.6c-4.1,4.1-8.2,8.2-12.2,12.2c-1,1,0.6,2.6,1.6,1.6c4.1-4.1,8.2-8.2,12.2-12.2
				c0.4-0.4,0.4-1.1,0-1.6c-4.1-4.1-8.2-8.2-12.2-12.2c-0.4-0.4-1.1-0.4-1.6,0c-4.1,4.1-8.2,8.2-12.2,12.2c-0.4,0.4-0.4,1.1,0,1.6
				c4.1,4.1,8.2,8.2,12.2,12.2C630.3,126.8,631.9,125.2,630.9,124.2z"/>
		</g>
	</g>
</g>
<g>
	<path d="M86.8,23.1c-19.3-6.6-42.4-1.7-56.3,13.6c-13.1,14.3-15.3,35.7-4.4,52c11.3,17,32.7,24.6,52.5,21.3
		c22-3.7,40.6-21.5,40.9-44.5C119.2,45.7,105.3,29.4,86.8,23.1z M84.7,104.6c-17.7,5.6-38.3,1.1-51.1-12.6
		C21.3,79,19.4,59.3,29.4,44.3c10.5-15.9,31-22.8,49.4-19.3c19.8,3.7,36.5,19.7,36.9,40.6C115.3,84.1,102,99.2,84.7,104.6z"/>
	<path d="M139.5,58.4c-2.5-20-15.8-37-33.4-46.4C69.2-7.6,15.3,8,3.9,51c-6.5,24.4,4.5,48.8,24.4,63.3c-0.2,7.7-1.7,17.9,5.1,23
		c4.6,3.5,11.1,3.5,15.7,0c3.9-3,4.8-7.1,5-11.6c1.4,0.3,2.7,0.6,4.1,0.8c0.6,7.1,4.8,13.4,12.8,13.5c8,0,12.3-6.4,12.8-13.5
		c1.7-0.3,3.3-0.6,5-1c0.2,4.5,1,8.7,5,11.8c4.6,3.5,11.1,3.5,15.7,0c6.9-5.2,5.3-15.8,5.1-23.7C131.8,100.7,142.3,80.3,139.5,58.4z
		 M112.5,110.5c-0.7,0-1.4,0.5-1.6,1.2c-1,0.9-0.8,2.3-0.1,3c0.1,4.1,0.2,8.3,0,12.4c-0.3,6.8-7.5,11.4-13.6,7.8
		c-4.5-2.7-4.5-7.2-4.5-11.8c0-1.3-1.2-2.2-2.4-1.9c-2.9,0.8-5.8,1.4-8.7,1.8c-0.8,0.1-1.4,1.1-1.4,1.9c0,5.6-2.6,11.2-9.1,11.2
		c-6.5,0-9.1-5.6-9.1-11.2c0-0.8-0.6-1.7-1.4-1.9c-2.6-0.4-5.3-1-7.8-1.6c-1.2-0.3-2.4,0.6-2.4,1.9c0,4.2,0.1,8.3-3.8,11.1
		c-6.1,4.4-14-0.2-14.4-7.3c-0.2-4-0.1-8.1,0-12.1c0.6-0.8,0.7-1.9-0.1-2.7c-0.2-0.6-0.8-0.9-1.3-1C13.4,98.9,2.9,78.4,6.5,57
		c3.1-18.4,15.9-33.7,32.3-42.1c34.2-17.5,83.5-3.4,95.1,35.6C140.7,73.2,131,96.5,112.5,110.5z"/>
</g>
</svg>
