<?xml version="1.0" encoding="utf-8"?>
<!-- Generator: Adobe Illustrator 21.0.0, SVG Export Plug-In . SVG Version: 6.00 Build 0)  -->
<svg version="1.1" id="Capa_1" xmlns="http://www.w3.org/2000/svg" xmlns:xlink="http://www.w3.org/1999/xlink" x="0px" y="0px"
	 viewBox="0 0 142 142" style="enable-background:new 0 0 142 142;" xml:space="preserve">
<style type="text/css">
	.st0{fill:#FFFFFF;}
</style>
<g>
	<path class="st0" d="M137.7,66.2c-5.8-10-11.5-20-17.3-30c-4.8-8.2-9.5-16.5-14.3-24.7c-0.2-0.4-0.5-0.7-0.9-0.8l0,0
		c-0.2-0.1-0.5-0.1-0.7-0.1h-0.1c-20.2,0-40.3,0-60.5,0c-2.1,0-5-0.5-7,0c-2.2,0.5-3.1,3.4-4.1,5.2C26.9,26.1,21,36.3,15.1,46.5
		c-3,5.1-5.9,10.3-8.9,15.4c-1.4,2.5-3.6,5.2-4.6,8c-0.7,1.9,0.5,3.2,1.5,4.9c2.4,4.1,4.7,8.1,7.1,12.2c6.4,11,12.7,22.1,19.1,33.1
		c1.8,3.2,3.5,6.6,5.6,9.6c1.1,1.7,2,1.8,3.9,1.8c21.9,0.2,43.9,0,65.8,0c0.7,0,1.3-0.4,1.7-1c10-17.4,20.1-34.8,30.1-52.2
		c1.1-1.9,3.1-4.2,3.6-6.3C140.5,70,138.7,68,137.7,66.2z M103.3,127.6c-21.8,0-43.5,0-65.3,0C27.1,108.8,16.3,89.9,5.4,71.1
		C16.3,52.2,27.1,33.4,38,14.5c21.8,0,43.5,0,65.3,0c10.9,18.8,21.8,37.7,32.6,56.5C125.1,89.9,114.2,108.8,103.3,127.6z"/>
	<path class="st0" d="M81,43.7c-11.6-4.4-25.1-0.8-33,8.8c-7.7,9.4-8.8,23.1-2.6,33.6C51.7,96.5,64,102,76,99.9
		c13.9-2.5,23.7-14.9,24-28.8C99.7,59,92.5,48,81,43.7z M70.7,96.5c-13.9,0-25.4-11.5-25.4-25.4c0-13.8,11.5-25.4,25.4-25.4
		c14.1,0,25.1,11.6,25.4,25.4C95.8,84.9,84.7,96.5,70.7,96.5z"/>
</g>
</svg>
