<?xml version="1.0" encoding="utf-8"?>
<!-- Generator: Adobe Illustrator 21.0.0, SVG Export Plug-In . SVG Version: 6.00 Build 0)  -->
<svg version="1.1" id="Capa_1" xmlns="http://www.w3.org/2000/svg" xmlns:xlink="http://www.w3.org/1999/xlink" x="0px" y="0px"
	 viewBox="0 0 142 142" style="enable-background:new 0 0 142 142;" xml:space="preserve">
<style type="text/css">
	.st0{fill:#FFFFFF;}
</style>
<g>
	<path class="st0" d="M99.5,29.5c-8.4-10.2-17.8-20-28-28.4c-1-0.8-2.2-0.9-3.1,0C60,8.5,52.3,16.7,45,25.2
		C33.1,39,21.2,54.6,16.1,72.4C10.7,91,17.2,111.7,31,125.1c14.8,14.6,37.3,19.7,57,12.9c22.6-7.8,37.5-29.1,37.8-52.9
		C125.5,64.2,112.4,45.1,99.5,29.5z M89.3,132.8c-18.7,7.6-40.8,3.3-55.2-10.8c-13.7-13.3-19-33.4-12.7-51.5
		c5.5-16.1,16.5-30.3,27.5-43c6.6-7.6,13.7-15,21.2-21.9c8.6,7.4,16.7,15.7,24,24.3c13,15.2,27,34.4,27.3,55.3
		C121.1,105.9,108.7,125,89.3,132.8z"/>
	<path class="st0" d="M70,127.1c-23.1-0.4-41.5-18.8-41.9-41.9c0-2.8-4.5-2.9-4.4,0c0.4,25.5,20.8,45.9,46.3,46.3
		C72.8,131.5,72.8,127.1,70,127.1z"/>
</g>
</svg>
