<?xml version="1.0" encoding="utf-8"?>
<!-- Generator: Adobe Illustrator 21.0.0, SVG Export Plug-In . SVG Version: 6.00 Build 0)  -->
<svg version="1.1" id="Capa_1" xmlns="http://www.w3.org/2000/svg" xmlns:xlink="http://www.w3.org/1999/xlink" x="0px" y="0px"
	 viewBox="0 0 142 142" style="enable-background:new 0 0 142 142;" xml:space="preserve">
<style type="text/css">
	.st0{fill:none;stroke:#000000;stroke-width:2.2;stroke-miterlimit:10;}
	.st1{fill:#FFFFFF;}
</style>
<path class="st0" d="M-30.7-130.9"/>
<g>
	<path class="st1" d="M105,35.7L105,35.7c-10-7.3-22.8-12-35.3-13c2.6-6.1,5.2-12.4,7.9-18.6C78,3.2,77.7,2,76.9,1.4
		c-0.6-0.5-1.4-0.5-2.1,0C53.4,17.3,31.5,35,16,57.4c-0.2,0.3-0.4,0.5-0.6,0.8c-0.9,1.3-2,2.9-2,4.6c0.1,2.6,2.9,4.2,5,5.3l0.5,0.3
		c2.6,1.3,5.8,3,8.9,3.7c1.5,0.4,2.5-0.1,3.5-0.7l0.4-0.2c0.8-0.4,1.6-0.8,2.4-1.2c5.7-2.9,11.5-5.9,17.6-7.2
		c1.7-0.4,3.5-0.3,5.2-0.3c1.1,0,2.2,0,3.3,0c2.9,0,6-0.1,8.8,0.6c3.1,0.7,4.2-0.8,5-3.3c1.1-3.5,1.6-7.4,1.7-10
		c0.2-1.9-0.7-3.1-1.7-4.4c-0.2-0.3-0.5-0.6-0.7-1c-0.8-1.2-1.7-2.5-2.5-3.8c-0.9-1.3-1.7-2.6-2.6-3.8c-0.8-1.1-2.1-1.1-2.9-0.5
		c-0.9,0.6-1.1,1.7-0.5,2.6l6,9c0.1,0.2,0.2,0.3,0.3,0.5c0.2,0.3,0.3,0.5,0.5,0.8l0.1,0.1c0,1.6-0.3,3.3-0.7,5
		c-0.1,0.4-0.2,0.7-0.2,1.1c-0.1,0.5-0.3,1.1-0.5,1.7c-0.2,0.8-0.5,1.5-0.6,2.3c-0.2-0.1-0.4-0.2-0.6-0.1c-4.9-1-10.6-0.8-16-0.5
		c-5.4,0.4-11,3.1-15.9,5.5c-0.6,0.3-1.2,0.6-1.8,0.9c-0.5,0.2-1.1,0.5-1.8,0.8c-1.7,0.7-3.6,1.5-5.2,2.6c-0.5-0.3-1.4-0.5-2.3-0.8
		c-0.3-0.1-0.5-0.1-0.6-0.2c-0.3-0.1-0.7-0.3-1.2-0.4c-2-0.8-6.8-2.5-7.2-4c-0.1-0.6,1.2-2.3,1.7-3c0.2-0.3,0.4-0.6,0.6-0.8
		c5.6-7.9,12.8-16.1,21.3-24.4c10-9.7,21.1-18.4,30-25.1l-0.9,2c-1.7,4-3.5,8.2-5.2,12.4c-0.3,0.7-0.2,1.4,0.1,2
		c0.3,0.6,0.9,0.9,1.6,0.9c9.4,0.4,20.1,3.4,29.2,8.2c8.6,4.6,15.5,11,20,18.5c5.6,9.5,8.1,21.5,7.2,34.6c-0.5,8.5-3,20.6-11.9,30.4
		c-5.2,5.8-12.3,10.2-20.9,13.3c-6.1,2.1-15.5,4.6-25.3,3.9c-21.9-1.6-41-15.4-47.6-34.5c-0.2-0.7-0.8-1.2-1.5-1.3
		c-0.7-0.1-1.6,0.1-2.1,0.7c-0.4,0.5-0.5,1.1-0.3,1.8c6.7,19.8,24.6,33.6,47.8,36.9c2.2,0.3,4.6,0.5,7,0.5c5.7,0,11.9-0.9,18.5-2.7
		c20.3-5.5,34.5-19.4,38.9-38.4C131.2,73.7,123.1,48.9,105,35.7z"/>
	<path class="st1" d="M50.2,39L50.2,39c-3.8,2-7.8,4-11.6,6c-0.7,0.3-0.9,0.9-1,1.2c-0.1,0.4,0,0.9,0.2,1.4c0.3,0.6,1,1.1,1.8,1.1
		c0.3,0,0.6-0.1,0.9-0.2c3.8-2,7.8-4,11.6-6c0.7-0.3,0.9-0.8,1-1.2c0.1-0.4,0.1-0.9-0.2-1.4C52.5,39,51.4,38.3,50.2,39z"/>
	<path class="st1" d="M54.5,115.8L54.5,115.8c-0.7-0.3-1.2-0.1-1.5,0c-0.4,0.2-0.7,0.6-0.9,1c-0.4,1-0.1,2.3,1.2,2.8
		c4.4,1.8,9,2.6,13.5,2.6c14.3,0,27.8-8.4,33.6-22.2C107.9,82,99.2,60.8,81,52.9c-1.2-0.5-2.4,0.1-2.8,1.1c-0.2,0.4-0.2,0.9-0.1,1.3
		c0.1,0.3,0.4,0.8,1,1.1c16.3,7.1,24.2,26,17.4,42.1C89.9,114.7,71,122.4,54.5,115.8z"/>
	<path class="st1" d="M28.6,108.8c-0.6-1.1-1.7-1.2-2.6-0.8c-0.9,0.5-1.5,1.6-0.9,2.7c4.9,9.2,14.7,16.3,25.5,18.7
		c0.2,0,0.3,0,0.5,0c1.1,0,1.8-0.8,2-1.7c0.2-0.9-0.2-2-1.4-2.2C41.9,123.4,33.1,117,28.6,108.8z"/>
</g>
</svg>
