<?xml version="1.0" encoding="utf-8"?>
<!-- Generator: Adobe Illustrator 21.0.0, SVG Export Plug-In . SVG Version: 6.00 Build 0)  -->
<svg version="1.1" id="Capa_1" xmlns="http://www.w3.org/2000/svg" xmlns:xlink="http://www.w3.org/1999/xlink" x="0px" y="0px"
	 viewBox="0 0 142 142" style="enable-background:new 0 0 142 142;" xml:space="preserve">
<style type="text/css">
	.st0{fill:none;stroke:#000000;stroke-width:2.2;stroke-miterlimit:10;}
	.st1{fill:#FFFFFF;}
</style>
<path class="st0" d="M-30.7-130.9"/>
<path class="st1" d="M116,76.2c-7.5-24.4-15-48.8-22.5-73.1c-0.3-0.9-1.1-1.6-2.1-1.6c-15.3,0-30.6,0-45.9,0c-1.4,0-2.6,1.4-2.1,2.8
	c5,15.1,10,30.3,15,45.4c-9.6,0-19.2,0-28.7,0c-1.6,0-3,1.9-1.9,3.4c18.6,25.3,37.2,50.5,55.7,75.8c2.6,3.6,5.3,7.2,7.9,10.7
	c1.5,2,4.7,0.9,4.1-1.7c-4.5-19.6-9-39.2-13.5-58.8c10.6,0,21.2,0,31.8,0C115.3,79.1,116.4,77.6,116,76.2z M39.5,61.6
	c-1.8-2.5-3.6-4.9-5.4-7.4c9.1,0,18.3,0,27.4,0c1.4,0,2.6-1.4,2.1-2.8c-5-15.1-10-30.3-15-45.4C62.3,6,76,6,89.7,6
	c7,22.9,14.1,45.8,21.1,68.7c-10.5,0-21.1,0-31.6,0c-0.9,0-1.5,0.4-1.8,1c-0.4,0.5-0.5,1.1-0.4,1.8c3.9,17,7.8,34.1,11.6,51.1
	C72.3,106.2,55.9,83.9,39.5,61.6z"/>
</svg>
