<?xml version="1.0" encoding="utf-8"?>
<!-- Generator: Adobe Illustrator 21.0.0, SVG Export Plug-In . SVG Version: 6.00 Build 0)  -->
<svg version="1.1" id="Capa_1" xmlns="http://www.w3.org/2000/svg" xmlns:xlink="http://www.w3.org/1999/xlink" x="0px" y="0px"
	 viewBox="0 0 142 142" style="enable-background:new 0 0 142 142;" xml:space="preserve">
<style type="text/css">
	.st0{fill:#FFFFFF;}
</style>
<g>
	<path class="st0" d="M133.6,134.5c-0.2-0.1-0.3-0.1-0.4-0.2c-0.3-0.2-0.6-0.3-0.9-0.5c-2-1.2-4-2.3-5.9-3.5c-2.4-1.6-5-3.2-6.9-5.4
		c-2.6-3,0-3.9,2.4-6.4c12.3-13,18.9-30.1,19.1-47.9c-0.3-27-16-52.1-40.8-63.3S45.8,0.6,25.4,18.6C5.3,36.3-3.1,65.4,5.1,91
		c8.1,25.3,31.1,43,56.8,47.8c14.7,2.8,30.3,1.9,45.2,1.3c6.3-0.2,12.6-0.6,18.9-1c2.3-0.2,5.9,0.2,8.1-0.9
		C135.9,137.3,135.1,135.1,133.6,134.5z M111.8,135.9c-11.8,0.6-23.7,0.9-35.5,0.4c-25-1.1-49.3-12.3-62.1-34.6
		C1.4,79.1,4.3,50,20.4,29.8C36.5,9.7,63.7,0.7,88.6,7.5c28.3,7.7,47.9,33.9,48.2,63.1c-0.1,11.1-2.8,22-8.2,31.8
		c-2.6,4.6-5.6,8.9-9.2,12.7c-1.9,2-5.3,4.1-5.5,7.1c-0.3,4.7,5.6,8.4,8.9,10.7c1.1,0.7,2.2,1.4,3.3,2.1
		C121.4,135.4,116.6,135.6,111.8,135.9z M132.5,138.4L132.5,138.4C132.6,138.5,132.7,138.5,132.5,138.4z"/>
	<path class="st0" d="M43.7,43.1c-0.5-0.4-1.1-0.5-1.6-0.5c-0.6,0-1.2,0.3-1.6,0.9c-5.3,7.2-4.3,17.4,3.1,22.8
		c7.1,5.2,16.7,3.6,22.2-3.1c0.6-0.8,0.9-2.2,0-2.9C58.4,54.6,51.1,48.9,43.7,43.1z M42.8,47.6C49,52.4,55.1,57.2,61.2,62
		C51.4,70.8,36.6,59.3,42.8,47.6z"/>
	<path class="st0" d="M102.5,42.7c-0.5-0.1-1.1,0-1.6,0.5c-7.3,5.7-14.7,11.5-22,17.2c-0.9,0.7-0.6,2.1,0,2.9
		c5.5,6.7,15.1,8.3,22.2,3.1c7.3-5.4,8.4-15.6,3.1-22.8C103.7,42.9,103.1,42.7,102.5,42.7z M83.4,62c6.1-4.8,12.3-9.6,18.4-14.4
		C108,59.3,93.2,70.8,83.4,62z"/>
</g>
</svg>
