<?xml version="1.0" encoding="utf-8"?>
<!-- Generator: Adobe Illustrator 21.0.0, SVG Export Plug-In . SVG Version: 6.00 Build 0)  -->
<svg version="1.1" id="Capa_1" xmlns="http://www.w3.org/2000/svg" xmlns:xlink="http://www.w3.org/1999/xlink" x="0px" y="0px"
	 viewBox="0 0 142 142" style="enable-background:new 0 0 142 142;" xml:space="preserve">
<g>
	<path d="M139.6,69.1c-11.6-4.1-23.2-8.2-34.9-12.3c1.2-6.9,2.4-13.8,3.7-20.7c0.3-1.5-0.9-2.7-2.4-2.4c-6.9,1.3-13.7,2.6-20.6,3.9
		C81.2,26,77,14.4,72.9,2.8c-0.7-1.8-3.1-1.9-3.8,0C65,14.5,60.9,26.1,56.8,37.7c-7-1.4-14.1-2.7-21.1-4.1c-1.5-0.3-2.7,0.9-2.4,2.4
		c1.4,7,2.9,14,4.3,21.1C26,61.2,14.4,65.4,2.8,69.6c-1.8,0.7-1.9,3.1,0,3.8c11.6,4.1,23.2,8.2,34.8,12.2
		c-1.5,7.2-3.1,14.5-4.6,21.7c-0.3,1.5,0.9,2.7,2.4,2.4c7.2-1.6,14.4-3.2,21.6-4.8c4.2,11.6,8.3,23.1,12.5,34.7
		c0.7,1.8,3.1,1.9,3.8,0c4.1-11.6,8.2-23.2,12.2-34.8c7.2,1.5,14.4,3,21.5,4.4c1.5,0.3,2.7-0.9,2.4-2.4c-1.6-7.1-3.1-14.3-4.7-21.4
		c11.6-4.2,23.1-8.3,34.7-12.5C141.5,72.2,141.5,69.8,139.6,69.1z M82.4,102c-3.7,10.4-7.3,20.8-11,31.2
		c-3.7-10.4-7.5-20.8-11.2-31.2c-0.4-1-1.3-1.6-2.4-1.4c-6.8,1.5-13.6,3-20.3,4.5c1.4-6.8,2.9-13.6,4.3-20.4c0.2-1.1-0.3-2-1.4-2.4
		c-10.4-3.7-20.8-7.3-31.2-11C19.6,67.7,30,64,40.4,60.2c1-0.4,1.6-1.3,1.4-2.4c-1.3-6.6-2.7-13.2-4-19.8c6.6,1.3,13.3,2.6,19.9,3.8
		c1.1,0.2,2-0.3,2.4-1.4C63.7,30,67.4,19.6,71,9.2c3.7,10.4,7.5,20.8,11.2,31.2c0.2,0.7,0.7,1.1,1.3,1.2c0.3,0.1,0.7,0.2,1.1,0.1
		c6.5-1.2,13-2.4,19.5-3.7c-1.2,6.5-2.3,13-3.5,19.6c-0.2,1.1,0.3,2,1.4,2.4c10.4,3.7,20.8,7.3,31.2,11
		c-10.4,3.7-20.8,7.5-31.2,11.2c-1,0.4-1.6,1.3-1.4,2.4c1.5,6.7,2.9,13.5,4.4,20.2c-6.8-1.4-13.5-2.8-20.3-4.2
		C83.7,100.4,82.8,101,82.4,102z"/>
	<path d="M94.4,69.8C87.1,62.6,79.9,55.3,72.6,48c-0.7-0.7-2-0.8-2.8,0C62.6,55.3,55.3,62.6,48,69.8c-0.7,0.7-0.8,2,0,2.8
		c7.3,7.3,14.5,14.5,21.8,21.8c0.4,0.4,0.9,0.6,1.3,0.6c0,0,0.1,0,0.1,0c0,0,0,0,0.1,0c0.4,0,0.9-0.2,1.3-0.6
		c7.3-7.3,14.5-14.5,21.8-21.8C95.2,71.9,95.2,70.6,94.4,69.8z M71.2,90.3c-6.3-6.3-12.7-12.7-19-19c6.3-6.3,12.7-12.7,19-19
		c6.3,6.3,12.7,12.7,19,19C83.9,77.6,77.6,83.9,71.2,90.3z"/>
</g>
<g>
	<g>
		<g>
			<path d="M637.6,96.2c4.2-0.8,8.4-1.6,12.6-2.4c-0.5-0.5-0.9-0.9-1.4-1.4c-0.7,4.2-1.5,8.4-2.2,12.6c-0.1,0.6,0.2,1.1,0.8,1.4
				c6.8,2.4,13.7,4.8,20.5,7.2c0-0.7,0-1.4,0-2.1c-6.8,2.5-13.6,4.9-20.5,7.4c-0.6,0.2-0.9,0.7-0.8,1.4c0.9,4.3,1.9,8.7,2.8,13
				c0.5-0.5,0.9-0.9,1.4-1.4c-4.4-0.9-8.7-1.8-13.1-2.7c-0.6-0.1-1.1,0.2-1.4,0.8c-2.4,6.8-4.8,13.7-7.2,20.5c0.7,0,1.4,0,2.1,0
				c-2.5-6.8-4.9-13.6-7.4-20.5c-0.2-0.6-0.7-0.9-1.4-0.8c-4.4,1-8.8,1.9-13.1,2.9c0.5,0.5,0.9,0.9,1.4,1.4
				c0.9-4.4,1.9-8.8,2.8-13.2c0.1-0.6-0.2-1.1-0.8-1.4c-6.8-2.4-13.7-4.8-20.5-7.2c0,0.7,0,1.4,0,2.1c6.8-2.5,13.6-4.9,20.5-7.4
				c0.6-0.2,0.9-0.7,0.8-1.4c-0.9-4.3-1.7-8.5-2.6-12.8c-0.5,0.5-0.9,0.9-1.4,1.4c4.3,0.8,8.6,1.7,12.9,2.5c0.6,0.1,1.1-0.2,1.4-0.8
				c2.4-6.8,4.8-13.7,7.2-20.5c-0.7,0-1.4,0-2.1,0c2.5,6.8,4.9,13.6,7.4,20.5c0.5,1.3,2.6,0.8,2.1-0.6c-2.5-6.8-4.9-13.6-7.4-20.5
				c-0.4-1-1.8-1-2.1,0c-2.4,6.8-4.8,13.7-7.2,20.5c0.5-0.3,0.9-0.5,1.4-0.8c-4.3-0.8-8.6-1.7-12.9-2.5c-0.8-0.2-1.5,0.5-1.4,1.4
				c0.9,4.3,1.7,8.5,2.6,12.8c0.3-0.5,0.5-0.9,0.8-1.4c-6.8,2.5-13.6,4.9-20.5,7.4c-1,0.4-1,1.8,0,2.1c6.8,2.4,13.7,4.8,20.5,7.2
				c-0.3-0.5-0.5-0.9-0.8-1.4c-0.9,4.4-1.9,8.8-2.8,13.2c-0.2,0.8,0.5,1.5,1.4,1.4c4.4-1,8.8-1.9,13.1-2.9c-0.5-0.3-0.9-0.5-1.4-0.8
				c2.5,6.8,4.9,13.6,7.4,20.5c0.4,1,1.8,1,2.1,0c2.4-6.8,4.8-13.7,7.2-20.5c-0.5,0.3-0.9,0.5-1.4,0.8c4.4,0.9,8.7,1.8,13.1,2.7
				c0.8,0.2,1.5-0.5,1.4-1.4c-0.9-4.3-1.9-8.7-2.8-13c-0.3,0.5-0.5,0.9-0.8,1.4c6.8-2.5,13.6-4.9,20.5-7.4c1-0.4,1-1.8,0-2.1
				c-6.8-2.4-13.7-4.8-20.5-7.2c0.3,0.5,0.5,0.9,0.8,1.4c0.7-4.2,1.5-8.4,2.2-12.6c0.2-0.9-0.5-1.5-1.4-1.4
				c-4.2,0.8-8.4,1.6-12.6,2.4C635.7,94.3,636.2,96.5,637.6,96.2z"/>
		</g>
	</g>
	<g>
		<g>
			<path d="M630.9,124.2c-4.1-4.1-8.2-8.2-12.2-12.2c0,0.5,0,1,0,1.6c4.1-4.1,8.2-8.2,12.2-12.2c-0.5,0-1,0-1.6,0
				c4.1,4.1,8.2,8.2,12.2,12.2c0-0.5,0-1,0-1.6c-4.1,4.1-8.2,8.2-12.2,12.2c-1,1,0.6,2.6,1.6,1.6c4.1-4.1,8.2-8.2,12.2-12.2
				c0.4-0.4,0.4-1.1,0-1.6c-4.1-4.1-8.2-8.2-12.2-12.2c-0.4-0.4-1.1-0.4-1.6,0c-4.1,4.1-8.2,8.2-12.2,12.2c-0.4,0.4-0.4,1.1,0,1.6
				c4.1,4.1,8.2,8.2,12.2,12.2C630.3,126.8,631.9,125.2,630.9,124.2z"/>
		</g>
	</g>
</g>
</svg>
