<?xml version="1.0" encoding="utf-8"?>
<!-- Generator: Adobe Illustrator 21.0.0, SVG Export Plug-In . SVG Version: 6.00 Build 0)  -->
<svg version="1.1" id="Capa_1" xmlns="http://www.w3.org/2000/svg" xmlns:xlink="http://www.w3.org/1999/xlink" x="0px" y="0px"
	 viewBox="0 0 142 142" style="enable-background:new 0 0 142 142;" xml:space="preserve">
<style type="text/css">
	.st0{fill:none;stroke:#000000;stroke-width:2.2;stroke-miterlimit:10;}
</style>
<g>
	<g>
		<g>
			<path d="M637.6,96.2c4.2-0.8,8.4-1.6,12.6-2.4c-0.5-0.5-0.9-0.9-1.4-1.4c-0.7,4.2-1.5,8.4-2.2,12.6c-0.1,0.6,0.2,1.1,0.8,1.4
				c6.8,2.4,13.7,4.8,20.5,7.2c0-0.7,0-1.4,0-2.1c-6.8,2.5-13.6,4.9-20.5,7.4c-0.6,0.2-0.9,0.7-0.8,1.4c0.9,4.3,1.9,8.7,2.8,13
				c0.5-0.5,0.9-0.9,1.4-1.4c-4.4-0.9-8.7-1.8-13.1-2.7c-0.6-0.1-1.1,0.2-1.4,0.8c-2.4,6.8-4.8,13.7-7.2,20.5c0.7,0,1.4,0,2.1,0
				c-2.5-6.8-4.9-13.6-7.4-20.5c-0.2-0.6-0.7-0.9-1.4-0.8c-4.4,1-8.8,1.9-13.1,2.9c0.5,0.5,0.9,0.9,1.4,1.4
				c0.9-4.4,1.9-8.8,2.8-13.2c0.1-0.6-0.2-1.1-0.8-1.4c-6.8-2.4-13.7-4.8-20.5-7.2c0,0.7,0,1.4,0,2.1c6.8-2.5,13.6-4.9,20.5-7.4
				c0.6-0.2,0.9-0.7,0.8-1.4c-0.9-4.3-1.7-8.5-2.6-12.8c-0.5,0.5-0.9,0.9-1.4,1.4c4.3,0.8,8.6,1.7,12.9,2.5c0.6,0.1,1.1-0.2,1.4-0.8
				c2.4-6.8,4.8-13.7,7.2-20.5c-0.7,0-1.4,0-2.1,0c2.5,6.8,4.9,13.6,7.4,20.5c0.5,1.3,2.6,0.8,2.1-0.6c-2.5-6.8-4.9-13.6-7.4-20.5
				c-0.4-1-1.8-1-2.1,0c-2.4,6.8-4.8,13.7-7.2,20.5c0.5-0.3,0.9-0.5,1.4-0.8c-4.3-0.8-8.6-1.7-12.9-2.5c-0.8-0.2-1.5,0.5-1.4,1.4
				c0.9,4.3,1.7,8.5,2.6,12.8c0.3-0.5,0.5-0.9,0.8-1.4c-6.8,2.5-13.6,4.9-20.5,7.4c-1,0.4-1,1.8,0,2.1c6.8,2.4,13.7,4.8,20.5,7.2
				c-0.3-0.5-0.5-0.9-0.8-1.4c-0.9,4.4-1.9,8.8-2.8,13.2c-0.2,0.8,0.5,1.5,1.4,1.4c4.4-1,8.8-1.9,13.1-2.9c-0.5-0.3-0.9-0.5-1.4-0.8
				c2.5,6.8,4.9,13.6,7.4,20.5c0.4,1,1.8,1,2.1,0c2.4-6.8,4.8-13.7,7.2-20.5c-0.5,0.3-0.9,0.5-1.4,0.8c4.4,0.9,8.7,1.8,13.1,2.7
				c0.8,0.2,1.5-0.5,1.4-1.4c-0.9-4.3-1.9-8.7-2.8-13c-0.3,0.5-0.5,0.9-0.8,1.4c6.8-2.5,13.6-4.9,20.5-7.4c1-0.4,1-1.8,0-2.1
				c-6.8-2.4-13.7-4.8-20.5-7.2c0.3,0.5,0.5,0.9,0.8,1.4c0.7-4.2,1.5-8.4,2.2-12.6c0.2-0.9-0.5-1.5-1.4-1.4
				c-4.2,0.8-8.4,1.6-12.6,2.4C635.7,94.3,636.2,96.5,637.6,96.2z"/>
		</g>
	</g>
	<g>
		<g>
			<path d="M630.9,124.2c-4.1-4.1-8.2-8.2-12.2-12.2c0,0.5,0,1,0,1.6c4.1-4.1,8.2-8.2,12.2-12.2c-0.5,0-1,0-1.6,0
				c4.1,4.1,8.2,8.2,12.2,12.2c0-0.5,0-1,0-1.6c-4.1,4.1-8.2,8.2-12.2,12.2c-1,1,0.6,2.6,1.6,1.6c4.1-4.1,8.2-8.2,12.2-12.2
				c0.4-0.4,0.4-1.1,0-1.6c-4.1-4.1-8.2-8.2-12.2-12.2c-0.4-0.4-1.1-0.4-1.6,0c-4.1,4.1-8.2,8.2-12.2,12.2c-0.4,0.4-0.4,1.1,0,1.6
				c4.1,4.1,8.2,8.2,12.2,12.2C630.3,126.8,631.9,125.2,630.9,124.2z"/>
		</g>
	</g>
</g>
<path class="st0" d="M-30.7-130.9"/>
<g>
	<path d="M140.2,68.6c-9.3-5.1-18.7-10.2-28-15.3c-2.8-1.5-3.7-2.2-6.6-0.6c-5.3,2.9-10.7,5.8-16,8.7c-4.4,2.4-8.9,4.8-13.3,7.2
		c-1.1,0.6-1.1,2.3,0,2.9c10.4,6,20.7,12,31.1,18.1c0.5,0.3,1.2,0.3,1.7,0c10.4-6,20.7-12,31.1-18.1c0.6-0.3,0.8-0.9,0.8-1.4
		C141,69.5,140.8,68.9,140.2,68.6z M80.5,70.1C89.8,65,99,60,108.3,55c9.2,5,18.4,10.1,27.6,15.1c-9.2,5.4-18.5,10.7-27.7,16.1
		C99,80.8,89.7,75.4,80.5,70.1z"/>
	<path d="M74.8,66.1c10.3-6.1,20.6-12.3,30.9-18.4c0.5-0.3,0.8-0.9,0.8-1.4c-0.2-12-0.4-24-0.7-36c0-0.6-0.3-1-0.6-1.2
		c-0.5-0.5-1.2-0.7-1.9-0.2c-9,5.7-18,11.4-27,17c-2.7,1.7-3.7,2.2-3.8,5.4c-0.1,6.1-0.1,12.2-0.2,18.3c0,5-0.1,10.1-0.1,15.1
		C72.2,65.9,73.7,66.7,74.8,66.1z M102.6,13.2c0.2,10.7,0.4,21.4,0.6,32C94,50.7,84.8,56.2,75.6,61.7c0.1-10.5,0.2-21.1,0.3-31.6
		C84.8,24.4,93.7,18.8,102.6,13.2z"/>
	<path d="M35.8,46.6c0.4,1.2,1.5,1.7,2.6,2.3c5.2,3.1,10.4,6.3,15.6,9.4c4.3,2.6,8.6,5.2,13,7.8c1.1,0.7,2.5-0.2,2.5-1.4
		c0-12-0.1-24-0.1-36c0-0.6-0.3-1.2-0.8-1.4C58.1,21.4,47.6,15.5,37.2,9.5c-0.5-0.3-1-0.3-1.5-0.1c0,0-0.1,0-0.1,0.1c0,0,0,0,0,0
		c-0.5,0.2-0.9,0.7-0.9,1.5c0.3,10.6,0.6,21.3,0.9,31.9C35.7,44,35.4,45.5,35.8,46.6z M39,45.4c-0.3-10.5-0.6-21-0.9-31.5
		c9.3,5.3,18.6,10.5,27.9,15.8c0,10.7,0.1,21.4,0.1,32C57.1,56.3,48.1,50.8,39,45.4z"/>
	<path d="M52.3,78.7c4.4-2.4,8.9-4.8,13.3-7.2c1.1-0.6,1.1-2.3,0-2.9c-10.4-6-20.7-12-31.1-18.1c-0.5-0.3-1.2-0.3-1.7,0
		c-10.4,6-20.7,12-31.1,18.1c-0.6,0.3-0.8,0.9-0.8,1.4c-0.1,0.6,0.1,1.2,0.8,1.5c9.3,5.1,18.7,10.2,28,15.3c2.8,1.5,3.7,2.2,6.6,0.6
		C41.6,84.5,46.9,81.6,52.3,78.7z M5.9,70c9.2-5.4,18.5-10.7,27.7-16.1c9.2,5.4,18.5,10.7,27.7,16.1C52.1,75,42.8,80,33.6,85.1
		C24.3,80,15.1,75,5.9,70z"/>
	<path d="M67.1,74c-10.3,6.1-20.6,12.3-30.9,18.4c-0.5,0.3-0.8,0.9-0.8,1.4c0.2,12,0.4,24,0.7,36c0,0.6,0.3,1,0.6,1.2
		c0.5,0.5,1.2,0.7,1.9,0.2c9-5.7,18-11.4,27-17c2.7-1.7,3.7-2.2,3.8-5.4c0.1-6.1,0.1-12.2,0.2-18.3c0-5,0.1-10.1,0.1-15.1
		C69.6,74.2,68.2,73.3,67.1,74z M39.3,126.8c-0.2-10.7-0.4-21.4-0.6-32c9.2-5.5,18.4-10.9,27.5-16.4C66.1,88.9,66,99.4,65.9,110
		C57,115.6,48.2,121.2,39.3,126.8z"/>
	<path d="M106.1,93.5c-0.4-1.2-1.5-1.7-2.6-2.3C98.3,88,93,84.9,87.8,81.7c-4.3-2.6-8.6-5.2-13-7.8c-1.1-0.7-2.5,0.2-2.5,1.4
		c0,12,0.1,24,0.1,36c0,0.6,0.3,1.2,0.8,1.4c10.4,5.9,20.9,11.8,31.3,17.7c0.5,0.3,1,0.3,1.5,0.1c0,0,0.1,0,0.1-0.1c0,0,0,0,0,0
		c0.5-0.2,0.9-0.7,0.9-1.5c-0.3-10.6-0.6-21.3-0.9-31.9C106.2,96.1,106.4,94.5,106.1,93.5z M102.8,94.6c0.3,10.5,0.6,21,0.9,31.5
		c-9.3-5.3-18.6-10.5-27.9-15.8c0-10.7-0.1-21.4-0.1-32C84.7,83.8,93.8,89.2,102.8,94.6z"/>
</g>
</svg>
