<?xml version="1.0" encoding="utf-8"?>
<!-- Generator: Adobe Illustrator 21.0.0, SVG Export Plug-In . SVG Version: 6.00 Build 0)  -->
<svg version="1.1" id="Capa_1" xmlns="http://www.w3.org/2000/svg" xmlns:xlink="http://www.w3.org/1999/xlink" x="0px" y="0px"
	 viewBox="0 0 142 142" style="enable-background:new 0 0 142 142;" xml:space="preserve">
<style type="text/css">
	.st0{fill:#FFFFFF;}
</style>
<path class="st0" d="M92.5,40.4c0.1-0.8,0.1-1.6,0.1-2.4c0-6.2-2.6-11.8-6.8-15.7L96.7,4.5c0.6-1,0.3-2.2-0.7-2.8s-2.2-0.3-2.8,0.7
	L82.6,19.9c-3.3-2.1-7.2-3.3-11.5-3.3s-8.1,1.2-11.5,3.3L49.1,2.4c-0.6-1-1.8-1.3-2.8-0.7S45,3.5,45.6,4.5l10.9,17.9
	c-4.2,3.9-6.8,9.5-6.8,15.7c0,0.8,0,1.6,0.1,2.4C30.6,48.7,17.2,67.8,17.2,90c0,18.6,9.4,35.6,25.1,45.6c0.5,0.3,1.1,0.4,1.6,0.2
	c0.5-0.1,1-0.5,1.3-1c0.3-0.6,0.7-1.3,1-1.9c7.6,4.4,16.2,6.7,25,6.7s17.4-2.3,25-6.7c0.3,0.6,0.6,1.3,1,1.9c0.3,0.5,0.7,0.9,1.3,1
	c0.2,0,0.4,0.1,0.5,0.1c0.4,0,0.8-0.1,1.1-0.3c15.7-10,25.1-27,25.1-45.6C125.1,67.8,111.7,48.7,92.5,40.4L92.5,40.4z M113.3,63.3
	c-1,0.5-2.1,0.8-3.2,0.8c-3.7,0-6.6-3-6.6-6.6c0-1.6,0.5-3,1.5-4.2C108.2,56.3,111,59.6,113.3,63.3z M53.7,38.1
	c0-9.6,7.8-17.5,17.5-17.5s17.5,7.8,17.5,17.5c0,0.3,0,0.6,0,0.9c-5.6-2-11.4-3-17.5-3c-6.1,0-12,1-17.4,2.9
	C53.7,38.6,53.7,38.3,53.7,38.1L53.7,38.1z M37.3,53.3c1,1.2,1.5,2.7,1.5,4.2c0,3.7-3,6.6-6.6,6.6c-1.1,0-2.2-0.3-3.2-0.8
	C31.3,59.6,34.1,56.3,37.3,53.3L37.3,53.3z M99.7,130.9c-1.2-2.4-2.4-4.8-3.5-7.2c-0.5-1-1.7-1.4-2.7-1c-1,0.5-1.4,1.7-1,2.7
	c0.6,1.2,1.2,2.5,1.8,3.8c-7,4.1-15,6.3-23.2,6.3s-16.2-2.2-23.2-6.3C58.5,107.9,64.6,89.8,68,78c1.3-4.7,2.4-8.7,3.1-12
	c2.4,10.6,7.5,28.6,17.6,51.4c0.5,1,1.7,1.5,2.7,1s1.5-1.7,1-2.7c-8.2-18.7-13-34.1-15.6-43.8c-2.8-10.5-3.6-16.7-3.6-16.7
	c-0.1-1-1-1.8-2-1.8l0,0c-1,0-1.9,0.8-2,1.8c0,0.3-4.4,32-26.5,75.8c-13.4-9.4-21.4-24.5-21.4-40.9c0-8.4,2.1-16.2,5.7-23.2
	c1.6,0.9,3.4,1.4,5.3,1.4c5.9,0,10.7-4.8,10.7-10.7c0-2.5-0.9-4.9-2.5-6.8c8.5-6.7,19.2-10.6,30.8-10.6s22.3,4,30.8,10.6
	c-1.6,1.9-2.5,4.3-2.5,6.8c0,5.9,4.8,10.7,10.7,10.7c1.8,0,3.7-0.5,5.3-1.4c3.6,6.9,5.7,14.8,5.7,23.2
	C121.1,106.4,113.1,121.6,99.7,130.9L99.7,130.9z"/>
</svg>
