<?xml version="1.0" encoding="utf-8"?>
<!-- Generator: Adobe Illustrator 21.0.0, SVG Export Plug-In . SVG Version: 6.00 Build 0)  -->
<svg version="1.1" id="Capa_1" xmlns="http://www.w3.org/2000/svg" xmlns:xlink="http://www.w3.org/1999/xlink" x="0px" y="0px"
	 viewBox="0 0 142 142" style="enable-background:new 0 0 142 142;" xml:space="preserve">
<style type="text/css">
	.st0{fill:#FFFFFF;}
</style>
<g>
	<path class="st0" d="M131.2,63.2c0-6.8,0-13.6,0-20.5c0-8-1.2-15.6-5.4-22.6c-5.8-9.8-16.7-16.6-28.1-17c-6.5-0.2-13,0-19.5,0
		c-12.5,0-25.6-1.8-37.4,3.2C32,10.1,24.8,17,22.6,26.6c-1.6,7.2-0.8,15-0.8,22.3c0,3.9,0,7.7,0,11.6c0,0.3,0,0.7,0,1
		c-2.3,1.5-4.3,3.4-6,5.6c-6.4,8.7-7,22.5-0.8,31.3c4.7,6.7,11.8,9.8,19.4,11c0,9.5,0,19,0,28.5c0,1.1,1,2.1,2.1,2.1c26,0,52,0,78,0
		c1.1,0,2.1-1,2.1-2.1c0-11.3,0-22.6,0-33.9c6.3-4.7,11.9-10.9,13.9-18.5C132.2,78.5,131.2,70.4,131.2,63.2z M31.7,17.7
		c7.5-8.6,18-10.4,28.5-10.4c12.8,0,26.1-0.9,38.9,0.1c13.5,1,24.1,12.1,27,24.9c1.5,6.3,0.9,13.1,0.9,19.5c0,0.5,0,1.1,0,1.6
		c-2.2,8.1-8.7,13.2-16.6,15.4c-0.8,0.2-1.7,0.5-2.5,0.6h-0.1c0,0,0,0-0.1,0c-1.8,0.1-3.6,0-5.4,0c-11.1,0-22.3,0-33.4,0
		c0-0.3-0.1-0.5-0.1-0.8c-1.3-7-8.4-11.5-15.2-11.8c-6.2-0.3-13-0.7-19.2,0.2c-2.9,0.4-5.7,1.2-8.4,2.5c0-2.2,0-4.4,0-6.7
		C26,41.2,23.5,27.1,31.7,17.7z M112.4,135.9c-24.6,0-49.2,0-73.8,0c0-8.6,0-17.2,0-25.9c2.3,0.2,4.7,0.3,7,0.3
		c18.1,0,36.2,0,54.4,0c4.4,0,6.6,0,10.4-2.2c0.7-0.4,1.4-0.8,2-1.2C112.4,116.5,112.4,126.2,112.4,135.9z M123.1,91.5
		c-4.4,6.5-11.1,11.1-17.9,14.6c-0.6,0-1.3,0-1.9,0c-2.7,0-5.4,0-8.1,0c-8.6,0-17.1,0-25.7,0c-10.4,0-21.3,1-31.7-0.2
		c-6.9-0.8-14.4-3.5-18.8-9.2c-6.6-8.5-5.2-22.7,2.7-29.9c0.9-0.8,1.8-1.5,2.9-2.2c0.3-0.1,0.6-0.3,0.8-0.5c3.2-1.9,7-3.2,10.6-3.4
		c5.9-0.4,12.4-0.5,18.3,0c-0.6-0.1,1.4,0.3,1.9,0.4c1.9,0.6,3.9,1.4,5.4,2.7c4.6,4,4.4,12.4-0.5,16.1c-1.1,0.8-2.3,1.4-3.6,1.7
		c-1.1,0.3,0.2,0.1-1.2,0.1c-4,0-8,0-11.9,0c-2.8,0-5.5,0-8.3,0c-2.7,0-2.7,4.2,0,4.2c7,0,14.3,0.7,21.2,0
		c6.6-0.7,10.9-6.3,11.6-12.5c12.1,0,24.2,0,36.3,0c8.5,0,16.8-4.2,21.8-10.9c0,3.6,0,7.1,0,10.7C127,80,126.9,85.8,123.1,91.5z"/>
	<path class="st0" d="M87.6,120.9c-7.7,0-15.4,0-23.2,0c-2.7,0-2.7,4.2,0,4.2c7.7,0,15.4,0,23.2,0C90.3,125.1,90.3,120.9,87.6,120.9
		z"/>
</g>
</svg>
