<?xml version="1.0" encoding="utf-8"?>
<!-- Generator: Adobe Illustrator 21.0.0, SVG Export Plug-In . SVG Version: 6.00 Build 0)  -->
<svg version="1.1" id="Capa_1" xmlns="http://www.w3.org/2000/svg" xmlns:xlink="http://www.w3.org/1999/xlink" x="0px" y="0px"
	 viewBox="0 0 142 142" style="enable-background:new 0 0 142 142;" xml:space="preserve">
<path d="M32.9,126.5c-0.7,0.9-2,1.1-2.9,0.4l0,0C15.2,115.9,5.3,99.3,2.7,80.9c-0.1-0.2-0.1-0.4-0.1-0.6c0-0.1,0-0.2,0-0.3
	C2.2,77.1,2,74.2,2,71.2C2,33,33,1.9,71.3,1.9c21.1,0,41.1,9.6,54.3,26.2c0.7,0.9,0.6,2.2-0.3,2.9c-0.9,0.7-2.2,0.6-2.9-0.3l0,0
	C100,2.5,59-2.2,30.9,20.1c-1.5,1.2-2.9,2.4-4.3,3.7C38.3,14.2,53,9,68.2,9c32.8,0,59.4,26.6,59.4,59.4c0,29.6-24,53.6-53.7,53.7
	c-26.8,0-48.5-21.7-48.5-48.5c0-24.2,19.6-43.8,43.9-43.9c21.9,0,39.7,17.8,39.7,39.7c0,19.8-16.1,35.9-35.9,35.9
	c-18,0-32.5-14.6-32.5-32.5c0-16.3,13.2-29.5,29.5-29.5c14.8,0,26.7,12,26.7,26.7c0,13.4-10.9,24.3-24.3,24.3c-12.2,0-22-9.9-22-22
	c0-11.1,9-20,20-20c10.1,0,18.2,8.2,18.3,18.2c0,1.1-0.9,2-2,2c-1.1,0-2-0.9-2-2c0-7.8-6.3-14.1-14.2-14.1
	c-8.8,0-15.9,7.1-15.9,15.9c0,9.9,8,17.9,17.9,17.9c11.1,0,20.2-9,20.2-20.2c0-12.5-10.1-22.6-22.6-22.6c-14,0-25.4,11.4-25.4,25.4
	c0,15.7,12.7,28.4,28.4,28.4c17.6,0,31.8-14.3,31.8-31.8c0-19.6-15.9-35.6-35.6-35.6c-22,0-39.7,17.8-39.8,39.8
	c0,24.5,19.9,44.4,44.4,44.4c27.4,0,49.5-22.2,49.6-49.6c0-30.5-24.8-55.3-55.3-55.3c-34,0-61.6,27.6-61.7,61.7
	c0,1.6,0.1,3.3,0.2,4.9c2.3,17.6,11.6,33.5,25.9,44.1C33.4,124.3,33.6,125.6,32.9,126.5L32.9,126.5z M136.6,48
	c-0.4-1.1-1.6-1.6-2.6-1.2s-1.6,1.6-1.2,2.6c12.1,34-5.6,71.3-39.6,83.3c-17.3,6.2-36.5,4.7-52.7-4c-1-0.5-2.2-0.1-2.8,0.9
	c-0.5,1-0.1,2.2,0.8,2.7c33.8,18.1,75.8,5.4,93.9-28.4C141.7,86.7,143.2,66.4,136.6,48L136.6,48z M129.3,41.4c0.5,1,1.8,1.3,2.8,0.8
	c0.9-0.5,1.3-1.7,0.9-2.7c-0.7-1.3-1.4-2.6-2.1-3.8c-0.6-1-1.9-1.2-2.8-0.6c-0.9,0.6-1.2,1.8-0.7,2.7
	C128,38.9,128.7,40.2,129.3,41.4L129.3,41.4z"/>
</svg>
