<?xml version="1.0" encoding="utf-8"?>
<!-- Generator: Adobe Illustrator 21.0.0, SVG Export Plug-In . SVG Version: 6.00 Build 0)  -->
<svg version="1.1" id="Capa_1" xmlns="http://www.w3.org/2000/svg" xmlns:xlink="http://www.w3.org/1999/xlink" x="0px" y="0px"
	 viewBox="0 0 142 142" style="enable-background:new 0 0 142 142;" xml:space="preserve">
<style type="text/css">
	.st0{fill:#FFFFFF;}
</style>
<g>
	<path class="st0" d="M94.4,5.1C67-4.9,35.2,3.8,16.8,26.4c-18.4,22.5-20.9,54.9-5.9,79.8c15,25,44.7,38.1,73.3,32.4
		c32.3-6.4,55.5-35.5,55.8-68.2C139.8,41.5,121.7,15.2,94.4,5.1z M92.8,132.2c-25.9,9.3-55.4,1.2-72.9-20s-19.8-52-5.6-75.6
		c14.1-23.4,42.1-36,69-30.6c30.6,6.1,52.7,33.4,53,64.4C135.9,97.8,118.7,122.9,92.8,132.2z"/>
	<path class="st0" d="M107.6,29.4c-10.2-9.2-23.4-14.1-37.1-14.3c-5,0.1-9.9,0.7-14.8,2c-1.9,0.5-1.8,3.2,0,3.7
		c22,6.4,37.8,26.6,37.7,49.6c0,23.1-15.7,43.3-37.7,49.6c-1.8,0.5-1.9,3.2,0,3.7c25.3,6.6,52.4-4.9,64.2-28.4
		C131,73.3,125.9,45.9,107.6,29.4z M97.5,114.3c-10.3,6.3-22.3,8.6-34.1,7c20.1-8.7,33.9-28.5,33.9-50.9s-13.8-42.3-34-50.9
		c2.4-0.3,4.7-0.5,7.2-0.6c22.7,0.3,43.2,15.2,49.5,37.2C126.3,78.2,117,102.3,97.5,114.3z"/>
</g>
</svg>
