<?xml version="1.0" encoding="utf-8"?>
<!-- Generator: Adobe Illustrator 21.0.0, SVG Export Plug-In . SVG Version: 6.00 Build 0)  -->
<svg version="1.1" id="Capa_1" xmlns="http://www.w3.org/2000/svg" xmlns:xlink="http://www.w3.org/1999/xlink" x="0px" y="0px"
	 viewBox="0 0 142 142" style="enable-background:new 0 0 142 142;" xml:space="preserve">
<style type="text/css">
	.st0{fill:#FFFFFF;}
</style>
<g>
	<path class="st0" d="M138.5,122.4c-6.1-30.3-12.2-60.6-18.3-90.8c-0.9-4.3-1.7-8.6-2.6-12.9c-0.2-0.8-1-1.4-1.8-1.4
		c-19.9,0-39.9,0-59.8,0c-0.1,0-0.1,0-0.2,0c-0.7,0-1.4,0.4-1.6,1.3c-6.8,30.3-13.6,60.6-20.3,91c-1,4.3-1.9,8.5-2.9,12.8
		c-0.3,1.2,0.5,2.4,1.8,2.4c30.3,0,60.6,0,90.9,0c4.3,0,8.7,0,13,0C137.9,124.7,138.7,123.5,138.5,122.4z M45.8,121
		c-3.6,0-7.1,0-10.7,0c6.6-29.5,13.2-59.1,19.8-88.6c0.8-3.8,1.7-7.6,2.5-11.4c18.9,0,37.8,0,56.8,0c6,29.8,12,59.6,18,89.4
		c0.7,3.5,1.4,7,2.1,10.5C104.8,121,75.3,121,45.8,121z"/>
	<path class="st0" d="M49.9,25.1c0.3-1.2-0.5-2.4-1.8-2.4c-7.1,0-14.2,0-21.4,0c-0.8,0-1.6,0.6-1.8,1.4c-6.2,28.7-12.5,57.4-18.7,86
		c-0.9,4.1-1.8,8.1-2.7,12.2c-0.1,0.4,0,0.7,0.1,1c0.2,0.7,0.8,1.3,1.7,1.3c6.7,0,13.4,0,20.1,0c0.8,0,1.6-0.6,1.8-1.4
		C33.8,94.5,40.4,65.8,47,37C48,33.2,48.9,29.2,49.9,25.1z M26.4,110.3c-0.8,3.6-1.6,7.1-2.5,10.7c-5.4,0-10.9,0-16.3,0
		c6.1-27.9,12.1-55.8,18.2-83.7c0.8-3.6,1.6-7.2,2.4-10.8c5.8,0,11.7,0,17.5,0C39.3,54.4,32.9,82.4,26.4,110.3z"/>
</g>
</svg>
